%TF.GenerationSoftware,Flux,Flux PCB Export,1*%
%TF.CreationDate,2026-10-01T18:50:54+00:00*%
%TF.ProjectId,input,696e7075-742e-46b6-9963-61645f706362,rev?*%
%TF.SameCoordinates,Original*%
%TF.FileFunction,Copper,L2,Bot*%
%TF.FilePolarity,Positive*%
%FSLAX46Y46*%
G04 Gerber Fmt 4.6, Leading zero omitted, Abs format (unit mm)*
G04 Filename: status-indicator-copy*
G04 Build it with Flux! Visit our site at: https://www.flux.ai (Flux) date 2026-10-01 18:50:54*
%MOMM*%
%LPD*%
G01*
G04 APERTURE LIST*
%TA.AperFunction,ComponentPad*%
%ADD10C,1.725000*%
%TD*%
%TA.AperFunction,ComponentPad*%
%ADD11R,1.725000X1.725000*%
%TD*%
%TA.AperFunction,ComponentPad*%
%ADD12C,1.700000*%
%TD*%
%TA.AperFunction,ViaPad*%
%ADD13C,0.600000*%
%TD*%
%TA.AperFunction,Conductor*%
%ADD14C,0.781400*%
%TD*%
G04 APERTURE END LIST*
D10*
%TO.P,U2,+3V3_*%
%TO.N,3.3V*%
X40752681Y-48649900D03*
%TO.P,U2,A3*%
%TO.N,N/C*%
X40752588Y-35949900D03*
%TO.P,U2,D7*%
X25512607Y-38490012D03*
%TO.P,U2,A7*%
X40752513Y-25789900D03*
%TO.P,U2,D11_/_COPI*%
X25512681Y-48650012D03*
%TO.P,U2,A2*%
X40752607Y-38489900D03*
%TO.P,U2,D9*%
X25512644Y-43570012D03*
%TO.P,U2,RST*%
X25512476Y-20710012D03*
%TO.P,U2,A4*%
X40752569Y-33409900D03*
%TO.P,U2,A1*%
X40752625Y-41029900D03*
%TO.P,U2,D1/RX*%
X25512457Y-18170012D03*
%TO.P,U2,BOOT1*%
X40752476Y-20709900D03*
%TO.P,U2,D12_/_CIPO*%
X25512700Y-51190012D03*
%TO.P,U2,VIN*%
%TO.N,12V*%
X40752439Y-15629900D03*
%TO.P,U2,D6*%
%TO.N,N/C*%
X25512588Y-35950012D03*
%TO.P,U2,GND_1*%
%TO.N,GND*%
X40752457Y-18169900D03*
%TO.P,U2,GND_2*%
X25512495Y-23250012D03*
%TO.P,U2,D10_/_CS*%
%TO.N,N/C*%
X25512663Y-46110012D03*
%TO.P,U2,D8*%
X25512625Y-41030012D03*
%TO.P,U2,A5*%
X40752551Y-30869900D03*
D11*
%TO.P,U2,D13_/_SCK_*%
X40752700Y-51189900D03*
D10*
%TO.P,U2,D3*%
%TO.N,Net 1*%
X25512532Y-28330012D03*
%TO.P,U2,A0*%
%TO.N,N/C*%
X40752644Y-43569900D03*
%TO.P,U2,D4*%
%TO.N,Net 7*%
X25512551Y-30870012D03*
%TO.P,U2,D5*%
%TO.N,Net 3*%
X25512569Y-33410012D03*
%TO.P,U2,BOOT0*%
%TO.N,N/C*%
X40752663Y-46109900D03*
%TO.P,U2,D2*%
%TO.N,Net 5*%
X25512513Y-25790012D03*
%TO.P,U2,D0/TX*%
%TO.N,N/C*%
X25512439Y-15630012D03*
%TO.P,U2,VBUS*%
X40752495Y-23249900D03*
%TO.P,U2,A6*%
X40752532Y-28329900D03*
%TD*%
D12*
%TO.P,CN3,2*%
%TO.N,Net 3*%
X44997497Y-24848700D03*
%TO.P,CN3,1*%
%TO.N,GND*%
X44997503Y-27388700D03*
%TD*%
%TO.P,CN2,1*%
%TO.N,12V*%
X17537672Y-13170000D03*
%TO.P,CN2,4*%
%TO.N,LED3 Cathode*%
X17537728Y-20670000D03*
%TO.P,CN2,2*%
%TO.N,LED1 Cathode*%
X17537691Y-15670000D03*
%TO.P,CN2,3*%
%TO.N,LED2 Const Cathode*%
X17537709Y-18170000D03*
%TD*%
%TO.P,CN1,2*%
%TO.N,12V*%
X44997497Y-15670000D03*
%TO.P,CN1,1*%
%TO.N,GND*%
X44997503Y-18210000D03*
%TD*%
D13*
%TO.N,GND*%
X32207000Y-48725800D03*
X39206200Y-12538900D03*
%TD*%
%TO.N,Net 3*%
D14*
X50181400Y-19664800D02*
X50181400Y-11380400D01*
X35616900Y-11380300D02*
X28023700Y-18973500D01*
X28023700Y-18973500D02*
X28023700Y-30898900D01*
X44997500Y-24848700D02*
X50181300Y-19664900D01*
X28023700Y-30898900D02*
X25512700Y-33409900D01*
X50181300Y-11380300D02*
X35616900Y-11380300D01*
%TD*%
%TA.AperFunction,Conductor*%
%TO.N,GND*%
G36*
X24677000Y-54600000D02*
G01*
X10488000Y-54600000D01*
X10400000Y-54512000D01*
X10400000Y-51066000D01*
X24561000Y-51066000D01*
X24561000Y-51314000D01*
X24627000Y-51558000D01*
X24750000Y-51773000D01*
X24751000Y-51774000D01*
X24929000Y-51951000D01*
X24930000Y-51952000D01*
X25144000Y-52076000D01*
X25389000Y-52142000D01*
X25635000Y-52142000D01*
X25881000Y-52076000D01*
X25884000Y-52075000D01*
X26096000Y-51952000D01*
X26275000Y-51773000D01*
X26398000Y-51561000D01*
X26401000Y-51553000D01*
X26464000Y-51315000D01*
X26464000Y-51065000D01*
X26401000Y-50827000D01*
X26398000Y-50819000D01*
X26275000Y-50607000D01*
X26096000Y-50428000D01*
X25884000Y-50305000D01*
X25879000Y-50303000D01*
X25637000Y-50239000D01*
X25388000Y-50239000D01*
X25147000Y-50303000D01*
X25142000Y-50305000D01*
X24930000Y-50428000D01*
X24929000Y-50429000D01*
X24751000Y-50606000D01*
X24750000Y-50607000D01*
X24627000Y-50822000D01*
X24625000Y-50827000D01*
X24561000Y-51066000D01*
X10400000Y-51066000D01*
X10400000Y-50231000D01*
X39794000Y-50231000D01*
X39794000Y-52149000D01*
X41712000Y-52149000D01*
X41712000Y-50231000D01*
X39794000Y-50231000D01*
X10400000Y-50231000D01*
X10400000Y-48526000D01*
X24561000Y-48526000D01*
X24561000Y-48774000D01*
X24627000Y-49018000D01*
X24750000Y-49233000D01*
X24751000Y-49234000D01*
X24929000Y-49411000D01*
X24930000Y-49412000D01*
X25144000Y-49536000D01*
X25389000Y-49602000D01*
X25635000Y-49602000D01*
X25881000Y-49536000D01*
X25884000Y-49535000D01*
X26096000Y-49412000D01*
X26275000Y-49233000D01*
X26398000Y-49021000D01*
X26401000Y-49013000D01*
X26464000Y-48775000D01*
X26464000Y-48525000D01*
X39802000Y-48525000D01*
X39802000Y-48774000D01*
X39866000Y-49017000D01*
X39867000Y-49018000D01*
X39990000Y-49233000D01*
X39991000Y-49234000D01*
X40169000Y-49411000D01*
X40170000Y-49412000D01*
X40384000Y-49536000D01*
X40629000Y-49602000D01*
X40875000Y-49602000D01*
X41121000Y-49536000D01*
X41124000Y-49535000D01*
X41336000Y-49412000D01*
X41515000Y-49233000D01*
X41638000Y-49021000D01*
X41639000Y-49018000D01*
X41705000Y-48772000D01*
X41705000Y-48526000D01*
X41639000Y-48281000D01*
X41515000Y-48067000D01*
X41336000Y-47888000D01*
X41124000Y-47765000D01*
X41119000Y-47763000D01*
X40877000Y-47699000D01*
X40628000Y-47699000D01*
X40387000Y-47763000D01*
X40382000Y-47765000D01*
X40170000Y-47888000D01*
X40169000Y-47889000D01*
X39991000Y-48066000D01*
X39990000Y-48067000D01*
X39867000Y-48282000D01*
X39865000Y-48287000D01*
X39802000Y-48525000D01*
X26464000Y-48525000D01*
X26401000Y-48287000D01*
X26398000Y-48279000D01*
X26275000Y-48067000D01*
X26096000Y-47888000D01*
X25884000Y-47765000D01*
X25879000Y-47763000D01*
X25637000Y-47699000D01*
X25388000Y-47699000D01*
X25147000Y-47763000D01*
X25142000Y-47765000D01*
X24930000Y-47888000D01*
X24929000Y-47889000D01*
X24751000Y-48066000D01*
X24750000Y-48067000D01*
X24627000Y-48282000D01*
X24625000Y-48287000D01*
X24561000Y-48526000D01*
X10400000Y-48526000D01*
X10400000Y-45986000D01*
X24561000Y-45986000D01*
X24561000Y-46234000D01*
X24627000Y-46478000D01*
X24750000Y-46693000D01*
X24751000Y-46694000D01*
X24929000Y-46871000D01*
X24930000Y-46872000D01*
X25144000Y-46996000D01*
X25389000Y-47062000D01*
X25635000Y-47062000D01*
X25881000Y-46996000D01*
X25884000Y-46995000D01*
X26096000Y-46872000D01*
X26275000Y-46693000D01*
X26398000Y-46481000D01*
X26401000Y-46473000D01*
X26464000Y-46235000D01*
X26464000Y-45985000D01*
X39802000Y-45985000D01*
X39802000Y-46234000D01*
X39866000Y-46477000D01*
X39867000Y-46478000D01*
X39990000Y-46693000D01*
X39991000Y-46694000D01*
X40169000Y-46871000D01*
X40170000Y-46872000D01*
X40384000Y-46996000D01*
X40629000Y-47062000D01*
X40875000Y-47062000D01*
X41121000Y-46996000D01*
X41124000Y-46995000D01*
X41336000Y-46872000D01*
X41515000Y-46693000D01*
X41638000Y-46481000D01*
X41639000Y-46478000D01*
X41705000Y-46232000D01*
X41705000Y-45986000D01*
X41639000Y-45741000D01*
X41515000Y-45527000D01*
X41336000Y-45348000D01*
X41124000Y-45225000D01*
X41119000Y-45223000D01*
X40877000Y-45159000D01*
X40628000Y-45159000D01*
X40387000Y-45223000D01*
X40382000Y-45225000D01*
X40170000Y-45348000D01*
X40169000Y-45349000D01*
X39991000Y-45526000D01*
X39990000Y-45527000D01*
X39867000Y-45742000D01*
X39865000Y-45747000D01*
X39802000Y-45985000D01*
X26464000Y-45985000D01*
X26401000Y-45747000D01*
X26398000Y-45739000D01*
X26275000Y-45527000D01*
X26096000Y-45348000D01*
X25884000Y-45225000D01*
X25879000Y-45223000D01*
X25637000Y-45159000D01*
X25388000Y-45159000D01*
X25147000Y-45223000D01*
X25142000Y-45225000D01*
X24930000Y-45348000D01*
X24929000Y-45349000D01*
X24751000Y-45526000D01*
X24750000Y-45527000D01*
X24627000Y-45742000D01*
X24625000Y-45747000D01*
X24561000Y-45986000D01*
X10400000Y-45986000D01*
X10400000Y-43446000D01*
X24561000Y-43446000D01*
X24561000Y-43694000D01*
X24627000Y-43938000D01*
X24750000Y-44153000D01*
X24751000Y-44154000D01*
X24929000Y-44331000D01*
X24930000Y-44332000D01*
X25144000Y-44456000D01*
X25389000Y-44522000D01*
X25635000Y-44522000D01*
X25881000Y-44456000D01*
X25884000Y-44455000D01*
X26096000Y-44332000D01*
X26275000Y-44153000D01*
X26398000Y-43941000D01*
X26401000Y-43933000D01*
X26464000Y-43695000D01*
X26464000Y-43445000D01*
X39802000Y-43445000D01*
X39802000Y-43694000D01*
X39866000Y-43937000D01*
X39867000Y-43938000D01*
X39990000Y-44153000D01*
X39991000Y-44154000D01*
X40169000Y-44331000D01*
X40170000Y-44332000D01*
X40384000Y-44456000D01*
X40629000Y-44522000D01*
X40875000Y-44522000D01*
X41121000Y-44456000D01*
X41124000Y-44455000D01*
X41336000Y-44332000D01*
X41515000Y-44153000D01*
X41638000Y-43941000D01*
X41639000Y-43938000D01*
X41705000Y-43692000D01*
X41705000Y-43446000D01*
X41639000Y-43201000D01*
X41515000Y-42987000D01*
X41336000Y-42808000D01*
X41124000Y-42685000D01*
X41119000Y-42683000D01*
X40877000Y-42619000D01*
X40628000Y-42619000D01*
X40387000Y-42683000D01*
X40382000Y-42685000D01*
X40170000Y-42808000D01*
X40169000Y-42809000D01*
X39991000Y-42986000D01*
X39990000Y-42987000D01*
X39867000Y-43202000D01*
X39865000Y-43207000D01*
X39802000Y-43445000D01*
X26464000Y-43445000D01*
X26401000Y-43207000D01*
X26398000Y-43199000D01*
X26275000Y-42987000D01*
X26096000Y-42808000D01*
X25884000Y-42685000D01*
X25879000Y-42683000D01*
X25637000Y-42619000D01*
X25388000Y-42619000D01*
X25147000Y-42683000D01*
X25142000Y-42685000D01*
X24930000Y-42808000D01*
X24929000Y-42809000D01*
X24751000Y-42986000D01*
X24750000Y-42987000D01*
X24627000Y-43202000D01*
X24625000Y-43207000D01*
X24561000Y-43446000D01*
X10400000Y-43446000D01*
X10400000Y-40906000D01*
X24561000Y-40906000D01*
X24561000Y-41154000D01*
X24627000Y-41398000D01*
X24750000Y-41613000D01*
X24751000Y-41614000D01*
X24929000Y-41791000D01*
X24930000Y-41792000D01*
X25144000Y-41916000D01*
X25389000Y-41982000D01*
X25635000Y-41982000D01*
X25881000Y-41916000D01*
X25884000Y-41915000D01*
X26096000Y-41792000D01*
X26275000Y-41613000D01*
X26398000Y-41401000D01*
X26401000Y-41393000D01*
X26464000Y-41155000D01*
X26464000Y-40905000D01*
X39802000Y-40905000D01*
X39802000Y-41154000D01*
X39866000Y-41397000D01*
X39867000Y-41398000D01*
X39990000Y-41613000D01*
X39991000Y-41614000D01*
X40169000Y-41791000D01*
X40170000Y-41792000D01*
X40384000Y-41916000D01*
X40629000Y-41982000D01*
X40875000Y-41982000D01*
X41121000Y-41916000D01*
X41124000Y-41915000D01*
X41336000Y-41792000D01*
X41515000Y-41613000D01*
X41638000Y-41401000D01*
X41639000Y-41398000D01*
X41705000Y-41152000D01*
X41705000Y-40906000D01*
X41639000Y-40661000D01*
X41515000Y-40447000D01*
X41336000Y-40268000D01*
X41124000Y-40145000D01*
X41119000Y-40143000D01*
X40877000Y-40079000D01*
X40628000Y-40079000D01*
X40387000Y-40143000D01*
X40382000Y-40145000D01*
X40170000Y-40268000D01*
X40169000Y-40269000D01*
X39991000Y-40446000D01*
X39990000Y-40447000D01*
X39867000Y-40662000D01*
X39865000Y-40667000D01*
X39802000Y-40905000D01*
X26464000Y-40905000D01*
X26401000Y-40667000D01*
X26398000Y-40659000D01*
X26275000Y-40447000D01*
X26096000Y-40268000D01*
X25884000Y-40145000D01*
X25879000Y-40143000D01*
X25637000Y-40079000D01*
X25388000Y-40079000D01*
X25147000Y-40143000D01*
X25142000Y-40145000D01*
X24930000Y-40268000D01*
X24929000Y-40269000D01*
X24751000Y-40446000D01*
X24750000Y-40447000D01*
X24627000Y-40662000D01*
X24625000Y-40667000D01*
X24561000Y-40906000D01*
X10400000Y-40906000D01*
X10400000Y-38366000D01*
X24561000Y-38366000D01*
X24561000Y-38614000D01*
X24627000Y-38858000D01*
X24750000Y-39073000D01*
X24751000Y-39074000D01*
X24929000Y-39251000D01*
X24930000Y-39252000D01*
X25144000Y-39376000D01*
X25389000Y-39442000D01*
X25635000Y-39442000D01*
X25881000Y-39376000D01*
X25884000Y-39375000D01*
X26096000Y-39252000D01*
X26275000Y-39073000D01*
X26398000Y-38861000D01*
X26401000Y-38853000D01*
X26464000Y-38615000D01*
X26464000Y-38366000D01*
X26463730Y-38365000D01*
X39802000Y-38365000D01*
X39802000Y-38614000D01*
X39866000Y-38857000D01*
X39867000Y-38858000D01*
X39990000Y-39073000D01*
X39991000Y-39074000D01*
X40169000Y-39251000D01*
X40170000Y-39252000D01*
X40384000Y-39376000D01*
X40629000Y-39442000D01*
X40875000Y-39442000D01*
X41121000Y-39376000D01*
X41124000Y-39375000D01*
X41336000Y-39252000D01*
X41515000Y-39073000D01*
X41638000Y-38861000D01*
X41639000Y-38858000D01*
X41705000Y-38612000D01*
X41705000Y-38367000D01*
X41638000Y-38120000D01*
X41513000Y-37905000D01*
X41336000Y-37728000D01*
X41124000Y-37605000D01*
X41119000Y-37603000D01*
X40877000Y-37539000D01*
X40628000Y-37539000D01*
X40387000Y-37603000D01*
X40382000Y-37605000D01*
X40170000Y-37728000D01*
X40169000Y-37729000D01*
X39991000Y-37906000D01*
X39990000Y-37907000D01*
X39867000Y-38122000D01*
X39866000Y-38123000D01*
X39802000Y-38365000D01*
X26463730Y-38365000D01*
X26398000Y-38122000D01*
X26273000Y-37905000D01*
X26096000Y-37728000D01*
X25884000Y-37605000D01*
X25879000Y-37603000D01*
X25637000Y-37539000D01*
X25388000Y-37539000D01*
X25147000Y-37603000D01*
X25142000Y-37605000D01*
X24930000Y-37728000D01*
X24929000Y-37729000D01*
X24751000Y-37906000D01*
X24750000Y-37907000D01*
X24627000Y-38122000D01*
X24561000Y-38366000D01*
X10400000Y-38366000D01*
X10400000Y-35826000D01*
X24561000Y-35826000D01*
X24561000Y-36074000D01*
X24627000Y-36318000D01*
X24750000Y-36533000D01*
X24751000Y-36534000D01*
X24929000Y-36711000D01*
X24930000Y-36712000D01*
X25144000Y-36836000D01*
X25389000Y-36902000D01*
X25635000Y-36902000D01*
X25881000Y-36836000D01*
X25884000Y-36835000D01*
X26096000Y-36712000D01*
X26273000Y-36535000D01*
X26398000Y-36318000D01*
X26464000Y-36074000D01*
X26464000Y-35826000D01*
X26463730Y-35825000D01*
X39802000Y-35825000D01*
X39802000Y-36074000D01*
X39866000Y-36317000D01*
X39867000Y-36318000D01*
X39990000Y-36533000D01*
X39991000Y-36534000D01*
X40169000Y-36711000D01*
X40170000Y-36712000D01*
X40384000Y-36836000D01*
X40629000Y-36902000D01*
X40875000Y-36902000D01*
X41121000Y-36836000D01*
X41124000Y-36835000D01*
X41336000Y-36712000D01*
X41513000Y-36535000D01*
X41638000Y-36319000D01*
X41705000Y-36073000D01*
X41705000Y-35827000D01*
X41638000Y-35580000D01*
X41513000Y-35365000D01*
X41336000Y-35188000D01*
X41124000Y-35065000D01*
X41119000Y-35063000D01*
X40877000Y-34999000D01*
X40628000Y-34999000D01*
X40387000Y-35063000D01*
X40382000Y-35065000D01*
X40170000Y-35188000D01*
X40169000Y-35189000D01*
X39991000Y-35366000D01*
X39990000Y-35367000D01*
X39867000Y-35582000D01*
X39866000Y-35583000D01*
X39802000Y-35825000D01*
X26463730Y-35825000D01*
X26398000Y-35582000D01*
X26273000Y-35365000D01*
X26096000Y-35188000D01*
X25884000Y-35065000D01*
X25879000Y-35063000D01*
X25637000Y-34999000D01*
X25388000Y-34999000D01*
X25147000Y-35063000D01*
X25142000Y-35065000D01*
X24930000Y-35188000D01*
X24929000Y-35189000D01*
X24751000Y-35366000D01*
X24750000Y-35367000D01*
X24627000Y-35582000D01*
X24561000Y-35826000D01*
X10400000Y-35826000D01*
X10400000Y-33286000D01*
X24561000Y-33286000D01*
X24561000Y-33534000D01*
X24627000Y-33778000D01*
X24750000Y-33993000D01*
X24751000Y-33994000D01*
X24929000Y-34171000D01*
X24930000Y-34172000D01*
X25144000Y-34296000D01*
X25389000Y-34362000D01*
X25635000Y-34362000D01*
X25881000Y-34296000D01*
X25884000Y-34295000D01*
X26096000Y-34172000D01*
X26273000Y-33995000D01*
X26398000Y-33778000D01*
X26464000Y-33534000D01*
X26464000Y-33285000D01*
X39802000Y-33285000D01*
X39802000Y-33534000D01*
X39866000Y-33777000D01*
X39867000Y-33778000D01*
X39990000Y-33993000D01*
X39991000Y-33994000D01*
X40169000Y-34171000D01*
X40170000Y-34172000D01*
X40384000Y-34296000D01*
X40629000Y-34362000D01*
X40875000Y-34362000D01*
X41121000Y-34296000D01*
X41124000Y-34295000D01*
X41336000Y-34172000D01*
X41513000Y-33995000D01*
X41638000Y-33779000D01*
X41705000Y-33533000D01*
X41705000Y-33287000D01*
X41638000Y-33040000D01*
X41513000Y-32825000D01*
X41336000Y-32648000D01*
X41124000Y-32525000D01*
X41121000Y-32524000D01*
X40875000Y-32458000D01*
X40629000Y-32458000D01*
X40384000Y-32524000D01*
X40170000Y-32648000D01*
X40169000Y-32649000D01*
X39991000Y-32826000D01*
X39990000Y-32827000D01*
X39867000Y-33042000D01*
X39866000Y-33043000D01*
X39802000Y-33285000D01*
X26464000Y-33285000D01*
X26464000Y-33284000D01*
X26447000Y-33219000D01*
X26468000Y-33142000D01*
X28336000Y-31274000D01*
X28399000Y-31212000D01*
X28411000Y-31194000D01*
X28418000Y-31184000D01*
X28422000Y-31178000D01*
X28445000Y-31145000D01*
X28448000Y-31140000D01*
X28455000Y-31123000D01*
X28459000Y-31116000D01*
X28461000Y-31112000D01*
X28464000Y-31105000D01*
X28480000Y-31070000D01*
X28482000Y-31066000D01*
X28504000Y-30983000D01*
X28506000Y-30961000D01*
X28506000Y-30953000D01*
X28508000Y-30942000D01*
X28508000Y-30927000D01*
X28511000Y-30904000D01*
X28511000Y-30745000D01*
X39802000Y-30745000D01*
X39802000Y-30995000D01*
X39866000Y-31237000D01*
X39867000Y-31238000D01*
X39990000Y-31453000D01*
X39991000Y-31454000D01*
X40169000Y-31631000D01*
X40170000Y-31632000D01*
X40382000Y-31755000D01*
X40387000Y-31757000D01*
X40628000Y-31821000D01*
X40877000Y-31821000D01*
X41119000Y-31757000D01*
X41124000Y-31755000D01*
X41336000Y-31632000D01*
X41513000Y-31455000D01*
X41638000Y-31239000D01*
X41705000Y-30995000D01*
X41705000Y-30747000D01*
X41638000Y-30500000D01*
X41513000Y-30285000D01*
X41336000Y-30108000D01*
X41124000Y-29985000D01*
X41121000Y-29984000D01*
X40875000Y-29918000D01*
X40629000Y-29918000D01*
X40384000Y-29984000D01*
X40170000Y-30108000D01*
X40169000Y-30109000D01*
X39991000Y-30286000D01*
X39990000Y-30287000D01*
X39867000Y-30502000D01*
X39866000Y-30503000D01*
X39802000Y-30745000D01*
X28511000Y-30745000D01*
X28511000Y-28206000D01*
X39801000Y-28206000D01*
X39801000Y-28452000D01*
X39867000Y-28698000D01*
X39990000Y-28913000D01*
X39991000Y-28914000D01*
X40169000Y-29091000D01*
X40170000Y-29092000D01*
X40382000Y-29215000D01*
X40387000Y-29217000D01*
X40628000Y-29281000D01*
X40877000Y-29281000D01*
X41119000Y-29217000D01*
X41124000Y-29215000D01*
X41336000Y-29092000D01*
X41513000Y-28915000D01*
X41638000Y-28699000D01*
X41705000Y-28453000D01*
X41705000Y-28207000D01*
X41638000Y-27960000D01*
X41513000Y-27745000D01*
X41336000Y-27568000D01*
X41124000Y-27445000D01*
X41121000Y-27444000D01*
X40875000Y-27378000D01*
X40629000Y-27378000D01*
X40384000Y-27444000D01*
X40170000Y-27568000D01*
X40169000Y-27569000D01*
X39991000Y-27746000D01*
X39990000Y-27747000D01*
X39867000Y-27962000D01*
X39801000Y-28206000D01*
X28511000Y-28206000D01*
X28511000Y-27325000D01*
X44502000Y-27325000D01*
X44502000Y-27452000D01*
X44537000Y-27581000D01*
X44602000Y-27694000D01*
X44696000Y-27788000D01*
X44806000Y-27852000D01*
X44930000Y-27884000D01*
X45065000Y-27884000D01*
X45189000Y-27852000D01*
X45299000Y-27788000D01*
X45393000Y-27694000D01*
X45458000Y-27581000D01*
X45493000Y-27452000D01*
X45493000Y-27325000D01*
X45458000Y-27196000D01*
X45393000Y-27083000D01*
X45303000Y-26993000D01*
X45190000Y-26928000D01*
X45191000Y-26928000D01*
X45061000Y-26893000D01*
X44934000Y-26893000D01*
X44805000Y-26928000D01*
X44692000Y-26993000D01*
X44602000Y-27083000D01*
X44537000Y-27196000D01*
X44502000Y-27325000D01*
X28511000Y-27325000D01*
X28511000Y-25666000D01*
X39801000Y-25666000D01*
X39801000Y-25912000D01*
X39867000Y-26158000D01*
X39990000Y-26373000D01*
X39991000Y-26374000D01*
X40169000Y-26551000D01*
X40170000Y-26552000D01*
X40382000Y-26675000D01*
X40387000Y-26677000D01*
X40628000Y-26741000D01*
X40877000Y-26741000D01*
X41119000Y-26677000D01*
X41124000Y-26675000D01*
X41336000Y-26552000D01*
X41513000Y-26375000D01*
X41638000Y-26159000D01*
X41705000Y-25913000D01*
X41705000Y-25667000D01*
X41638000Y-25420000D01*
X41513000Y-25205000D01*
X41336000Y-25028000D01*
X41124000Y-24905000D01*
X41121000Y-24904000D01*
X40875000Y-24838000D01*
X40629000Y-24838000D01*
X40384000Y-24904000D01*
X40170000Y-25028000D01*
X40169000Y-25029000D01*
X39990000Y-25207000D01*
X39867000Y-25422000D01*
X39801000Y-25666000D01*
X28511000Y-25666000D01*
X28511000Y-23126000D01*
X39801000Y-23126000D01*
X39801000Y-23372000D01*
X39867000Y-23618000D01*
X39990000Y-23833000D01*
X39991000Y-23834000D01*
X40169000Y-24011000D01*
X40170000Y-24012000D01*
X40382000Y-24135000D01*
X40387000Y-24137000D01*
X40628000Y-24201000D01*
X40877000Y-24201000D01*
X41119000Y-24137000D01*
X41124000Y-24135000D01*
X41336000Y-24012000D01*
X41513000Y-23835000D01*
X41638000Y-23619000D01*
X41705000Y-23373000D01*
X41705000Y-23127000D01*
X41638000Y-22880000D01*
X41513000Y-22665000D01*
X41336000Y-22488000D01*
X41124000Y-22365000D01*
X41121000Y-22364000D01*
X40875000Y-22298000D01*
X40629000Y-22298000D01*
X40384000Y-22364000D01*
X40170000Y-22488000D01*
X40169000Y-22489000D01*
X39991000Y-22666000D01*
X39989000Y-22669000D01*
X39867000Y-22882000D01*
X39801000Y-23126000D01*
X28511000Y-23126000D01*
X28511000Y-20586000D01*
X39801000Y-20586000D01*
X39801000Y-20832000D01*
X39867000Y-21079000D01*
X39868000Y-21080000D01*
X39990000Y-21293000D01*
X39991000Y-21294000D01*
X40169000Y-21471000D01*
X40170000Y-21472000D01*
X40382000Y-21595000D01*
X40387000Y-21597000D01*
X40628000Y-21661000D01*
X40877000Y-21661000D01*
X41119000Y-21597000D01*
X41124000Y-21595000D01*
X41336000Y-21472000D01*
X41513000Y-21295000D01*
X41638000Y-21080000D01*
X41705000Y-20833000D01*
X41705000Y-20587000D01*
X41638000Y-20340000D01*
X41513000Y-20125000D01*
X41336000Y-19948000D01*
X41124000Y-19825000D01*
X41121000Y-19824000D01*
X40875000Y-19758000D01*
X40629000Y-19758000D01*
X40384000Y-19824000D01*
X40170000Y-19948000D01*
X40169000Y-19949000D01*
X39991000Y-20126000D01*
X39990000Y-20127000D01*
X39867000Y-20342000D01*
X39801000Y-20586000D01*
X28511000Y-20586000D01*
X28511000Y-19206000D01*
X28534000Y-19151000D01*
X29587145Y-18098000D01*
X40182000Y-18098000D01*
X40182000Y-18242000D01*
X40222000Y-18392000D01*
X40298000Y-18523000D01*
X40299000Y-18524000D01*
X40402000Y-18625000D01*
X40532000Y-18700000D01*
X40681000Y-18740000D01*
X40825000Y-18740000D01*
X40975000Y-18700000D01*
X40974000Y-18700000D01*
X41104000Y-18625000D01*
X41207000Y-18522000D01*
X41283000Y-18392000D01*
X41323000Y-18242000D01*
X41323000Y-18147000D01*
X44502000Y-18147000D01*
X44502000Y-18274000D01*
X44537000Y-18402000D01*
X44602000Y-18515000D01*
X44602000Y-18516000D01*
X44694000Y-18608000D01*
X44805000Y-18671000D01*
X44934000Y-18706000D01*
X45061000Y-18706000D01*
X45191000Y-18671000D01*
X45190000Y-18671000D01*
X45301000Y-18608000D01*
X45393000Y-18516000D01*
X45393000Y-18515000D01*
X45458000Y-18402000D01*
X45493000Y-18274000D01*
X45493000Y-18147000D01*
X45458000Y-18018000D01*
X45393000Y-17905000D01*
X45393000Y-17904000D01*
X45303000Y-17814000D01*
X45304000Y-17814000D01*
X45190000Y-17749000D01*
X45191000Y-17749000D01*
X45061000Y-17714000D01*
X44934000Y-17714000D01*
X44805000Y-17749000D01*
X44691000Y-17814000D01*
X44602000Y-17904000D01*
X44602000Y-17905000D01*
X44537000Y-18018000D01*
X44502000Y-18147000D01*
X41323000Y-18147000D01*
X41323000Y-18098000D01*
X41283000Y-17949000D01*
X41209000Y-17820000D01*
X41104000Y-17715000D01*
X40974000Y-17640000D01*
X40975000Y-17640000D01*
X40825000Y-17600000D01*
X40681000Y-17600000D01*
X40532000Y-17640000D01*
X40402000Y-17715000D01*
X40297000Y-17818000D01*
X40222000Y-17949000D01*
X40182000Y-18098000D01*
X29587145Y-18098000D01*
X32179502Y-15506000D01*
X39801000Y-15506000D01*
X39801000Y-15752000D01*
X39867000Y-15998000D01*
X39990000Y-16213000D01*
X39991000Y-16214000D01*
X40169000Y-16391000D01*
X40170000Y-16392000D01*
X40382000Y-16515000D01*
X40387000Y-16517000D01*
X40628000Y-16581000D01*
X40877000Y-16581000D01*
X41119000Y-16517000D01*
X41124000Y-16515000D01*
X41336000Y-16392000D01*
X41513000Y-16215000D01*
X41638000Y-15999000D01*
X41705000Y-15753000D01*
X41705000Y-15547000D01*
X44059000Y-15547000D01*
X44059000Y-15793000D01*
X44121000Y-16028000D01*
X44124000Y-16036000D01*
X44245000Y-16245000D01*
X44422000Y-16422000D01*
X44631000Y-16543000D01*
X44634000Y-16544000D01*
X44877000Y-16609000D01*
X45118000Y-16609000D01*
X45361000Y-16544000D01*
X45364000Y-16543000D01*
X45573000Y-16422000D01*
X45750000Y-16245000D01*
X45871000Y-16036000D01*
X45872000Y-16033000D01*
X45937000Y-15791000D01*
X45937000Y-15549000D01*
X45872000Y-15307000D01*
X45871000Y-15304000D01*
X45750000Y-15095000D01*
X45573000Y-14918000D01*
X45362000Y-14796000D01*
X45363000Y-14796000D01*
X45119000Y-14730000D01*
X44876000Y-14730000D01*
X44633000Y-14796000D01*
X44422000Y-14918000D01*
X44245000Y-15095000D01*
X44124000Y-15304000D01*
X44121000Y-15312000D01*
X44059000Y-15547000D01*
X41705000Y-15547000D01*
X41705000Y-15507000D01*
X41638000Y-15260000D01*
X41513000Y-15045000D01*
X41336000Y-14868000D01*
X41124000Y-14745000D01*
X41121000Y-14744000D01*
X40875000Y-14678000D01*
X40629000Y-14678000D01*
X40384000Y-14744000D01*
X40170000Y-14868000D01*
X40169000Y-14869000D01*
X39991000Y-15046000D01*
X39990000Y-15047000D01*
X39867000Y-15262000D01*
X39801000Y-15506000D01*
X32179502Y-15506000D01*
X35796000Y-11890000D01*
X35851000Y-11867000D01*
X40390000Y-11867000D01*
X40450000Y-12090000D01*
X40126000Y-12276000D01*
X39938000Y-12465000D01*
X39937000Y-12466000D01*
X39801000Y-12700000D01*
X39801000Y-12701000D01*
X39735000Y-12954000D01*
X39735000Y-13226000D01*
X39802000Y-13482000D01*
X39937000Y-13714000D01*
X39938000Y-13715000D01*
X40126000Y-13904000D01*
X40359000Y-14038000D01*
X40621000Y-14108000D01*
X40884000Y-14108000D01*
X41147000Y-14038000D01*
X41146000Y-14038000D01*
X41379000Y-13904000D01*
X41567000Y-13715000D01*
X41568000Y-13714000D01*
X41701000Y-13485000D01*
X41772000Y-13222000D01*
X41772000Y-12958000D01*
X41701000Y-12695000D01*
X41568000Y-12466000D01*
X41567000Y-12465000D01*
X41379000Y-12276000D01*
X41055000Y-12090000D01*
X41115000Y-11867000D01*
X49606000Y-11867000D01*
X49694000Y-11955000D01*
X49694000Y-19432000D01*
X49671000Y-19487000D01*
X45253000Y-23904000D01*
X45175000Y-23924000D01*
X45121000Y-23909000D01*
X44877000Y-23909000D01*
X44634000Y-23974000D01*
X44631000Y-23975000D01*
X44422000Y-24096000D01*
X44245000Y-24273000D01*
X44124000Y-24482000D01*
X44123000Y-24485000D01*
X44059000Y-24724000D01*
X44059000Y-24972000D01*
X44121000Y-25207000D01*
X44124000Y-25215000D01*
X44245000Y-25424000D01*
X44422000Y-25601000D01*
X44631000Y-25722000D01*
X44634000Y-25723000D01*
X44873000Y-25787000D01*
X45122000Y-25787000D01*
X45361000Y-25723000D01*
X45364000Y-25722000D01*
X45573000Y-25601000D01*
X45750000Y-25424000D01*
X45872000Y-25214000D01*
X45937000Y-24970000D01*
X45937000Y-24726000D01*
X45922000Y-24668000D01*
X45943000Y-24591000D01*
X50521000Y-20015000D01*
X50525000Y-20010000D01*
X50538000Y-19996000D01*
X50555000Y-19979000D01*
X50564000Y-19967000D01*
X50568000Y-19961000D01*
X50577000Y-19950000D01*
X50589000Y-19931000D01*
X50591000Y-19927000D01*
X50599000Y-19915000D01*
X50606000Y-19903000D01*
X50612000Y-19891000D01*
X50619000Y-19880000D01*
X50627000Y-19858000D01*
X50631000Y-19849000D01*
X50639000Y-19833000D01*
X50644000Y-19814000D01*
X50648000Y-19800000D01*
X50650000Y-19795000D01*
X50653000Y-19781000D01*
X50662000Y-19744000D01*
X50662000Y-19742000D01*
X50663000Y-19734000D01*
X50665000Y-19721000D01*
X50666000Y-19708000D01*
X50666000Y-19699000D01*
X50667000Y-19689000D01*
X50669000Y-19671000D01*
X50669000Y-11368000D01*
X50664000Y-11306000D01*
X50651000Y-11257000D01*
X50638000Y-11210000D01*
X50605000Y-11141000D01*
X50603000Y-11137000D01*
X50554000Y-11066000D01*
X50497000Y-11009000D01*
X50428000Y-10960000D01*
X50422000Y-10957000D01*
X50354000Y-10924000D01*
X50263000Y-10900000D01*
X50257000Y-10899000D01*
X50191000Y-10892000D01*
X35615000Y-10892000D01*
X35584000Y-10894000D01*
X35581000Y-10894000D01*
X35573000Y-10895000D01*
X35571000Y-10895000D01*
X35562000Y-10896000D01*
X35536000Y-10899000D01*
X35521000Y-10902000D01*
X35517000Y-10903000D01*
X35496000Y-10907000D01*
X35487000Y-10909000D01*
X35470000Y-10916000D01*
X35468000Y-10916000D01*
X35459000Y-10919000D01*
X35447000Y-10924000D01*
X35442000Y-10927000D01*
X35410000Y-10939000D01*
X35408000Y-10940000D01*
X35394000Y-10948000D01*
X35387000Y-10951000D01*
X35375000Y-10957000D01*
X35366000Y-10963000D01*
X35364000Y-10964000D01*
X35339000Y-10980000D01*
X35325000Y-10991000D01*
X35318000Y-10996000D01*
X35309000Y-11002000D01*
X35307000Y-11004000D01*
X35288000Y-11022000D01*
X35286000Y-11024000D01*
X35280000Y-11029000D01*
X35278000Y-11031000D01*
X27683000Y-18624000D01*
X27679000Y-18629000D01*
X27666000Y-18643000D01*
X27650000Y-18659000D01*
X27639000Y-18675000D01*
X27633000Y-18683000D01*
X27628000Y-18688000D01*
X27626000Y-18691000D01*
X27609000Y-18719000D01*
X27606000Y-18725000D01*
X27600000Y-18733000D01*
X27596000Y-18742000D01*
X27591000Y-18750000D01*
X27583000Y-18763000D01*
X27576000Y-18784000D01*
X27573000Y-18790000D01*
X27569000Y-18799000D01*
X27566000Y-18808000D01*
X27565000Y-18812000D01*
X27563000Y-18818000D01*
X27553000Y-18846000D01*
X27549000Y-18867000D01*
X27548000Y-18869000D01*
X27544000Y-18887000D01*
X27544000Y-18890000D01*
X27542000Y-18908000D01*
X27541000Y-18914000D01*
X27538000Y-18928000D01*
X27537000Y-18958000D01*
X27536000Y-18964000D01*
X27536000Y-30665000D01*
X27513000Y-30720000D01*
X25777000Y-32455000D01*
X25699000Y-32475000D01*
X25638000Y-32458000D01*
X25389000Y-32458000D01*
X25144000Y-32524000D01*
X24930000Y-32648000D01*
X24929000Y-32649000D01*
X24751000Y-32826000D01*
X24750000Y-32827000D01*
X24627000Y-33042000D01*
X24561000Y-33286000D01*
X10400000Y-33286000D01*
X10400000Y-30746000D01*
X24561000Y-30746000D01*
X24561000Y-30995000D01*
X24627000Y-31238000D01*
X24750000Y-31453000D01*
X24751000Y-31454000D01*
X24929000Y-31631000D01*
X24930000Y-31632000D01*
X25142000Y-31755000D01*
X25147000Y-31757000D01*
X25388000Y-31821000D01*
X25637000Y-31821000D01*
X25879000Y-31757000D01*
X25884000Y-31755000D01*
X26096000Y-31632000D01*
X26273000Y-31455000D01*
X26398000Y-31238000D01*
X26464000Y-30995000D01*
X26464000Y-30746000D01*
X26398000Y-30502000D01*
X26273000Y-30285000D01*
X26096000Y-30108000D01*
X25884000Y-29985000D01*
X25881000Y-29984000D01*
X25635000Y-29918000D01*
X25389000Y-29918000D01*
X25144000Y-29984000D01*
X24930000Y-30108000D01*
X24929000Y-30109000D01*
X24751000Y-30286000D01*
X24750000Y-30287000D01*
X24627000Y-30502000D01*
X24561000Y-30746000D01*
X10400000Y-30746000D01*
X10400000Y-28207000D01*
X24560000Y-28207000D01*
X24560000Y-28453000D01*
X24627000Y-28700000D01*
X24750000Y-28913000D01*
X24751000Y-28914000D01*
X24929000Y-29091000D01*
X24930000Y-29092000D01*
X25142000Y-29215000D01*
X25147000Y-29217000D01*
X25388000Y-29281000D01*
X25637000Y-29281000D01*
X25879000Y-29217000D01*
X25884000Y-29215000D01*
X26096000Y-29092000D01*
X26273000Y-28915000D01*
X26398000Y-28698000D01*
X26464000Y-28454000D01*
X26464000Y-28206000D01*
X26398000Y-27962000D01*
X26273000Y-27745000D01*
X26096000Y-27568000D01*
X25884000Y-27445000D01*
X25881000Y-27444000D01*
X25635000Y-27378000D01*
X25389000Y-27378000D01*
X25144000Y-27444000D01*
X24930000Y-27568000D01*
X24929000Y-27569000D01*
X24751000Y-27746000D01*
X24750000Y-27747000D01*
X24627000Y-27960000D01*
X24560000Y-28207000D01*
X10400000Y-28207000D01*
X10400000Y-25667000D01*
X24560000Y-25667000D01*
X24560000Y-25913000D01*
X24627000Y-26160000D01*
X24750000Y-26373000D01*
X24751000Y-26374000D01*
X24929000Y-26551000D01*
X24930000Y-26552000D01*
X25142000Y-26675000D01*
X25147000Y-26677000D01*
X25388000Y-26741000D01*
X25637000Y-26741000D01*
X25879000Y-26677000D01*
X25884000Y-26675000D01*
X26096000Y-26552000D01*
X26273000Y-26375000D01*
X26398000Y-26158000D01*
X26464000Y-25914000D01*
X26464000Y-25666000D01*
X26398000Y-25422000D01*
X26273000Y-25205000D01*
X26096000Y-25028000D01*
X25884000Y-24905000D01*
X25881000Y-24904000D01*
X25635000Y-24838000D01*
X25389000Y-24838000D01*
X25144000Y-24904000D01*
X24930000Y-25028000D01*
X24929000Y-25029000D01*
X24750000Y-25207000D01*
X24627000Y-25420000D01*
X24560000Y-25667000D01*
X10400000Y-25667000D01*
X10400000Y-23173000D01*
X24943000Y-23173000D01*
X24943000Y-23327000D01*
X24980000Y-23467000D01*
X25057000Y-23602000D01*
X25162000Y-23705000D01*
X25292000Y-23780000D01*
X25441000Y-23820000D01*
X25585000Y-23820000D01*
X25735000Y-23780000D01*
X25734000Y-23780000D01*
X25864000Y-23705000D01*
X25968000Y-23601000D01*
X26043000Y-23471000D01*
X26083000Y-23322000D01*
X26083000Y-23178000D01*
X26043000Y-23029000D01*
X25968000Y-22899000D01*
X25864000Y-22795000D01*
X25734000Y-22720000D01*
X25735000Y-22720000D01*
X25585000Y-22680000D01*
X25441000Y-22680000D01*
X25292000Y-22720000D01*
X25162000Y-22795000D01*
X25057000Y-22898000D01*
X24980000Y-23033000D01*
X24943000Y-23173000D01*
X10400000Y-23173000D01*
X10400000Y-20549000D01*
X16598000Y-20549000D01*
X16598000Y-20791000D01*
X16663000Y-21033000D01*
X16664000Y-21036000D01*
X16785000Y-21245000D01*
X16962000Y-21422000D01*
X17171000Y-21543000D01*
X17174000Y-21544000D01*
X17417000Y-21609000D01*
X17659000Y-21609000D01*
X17901000Y-21544000D01*
X17904000Y-21543000D01*
X18113000Y-21422000D01*
X18290000Y-21245000D01*
X18411000Y-21036000D01*
X18414000Y-21028000D01*
X18476000Y-20793000D01*
X18476000Y-20587000D01*
X24560000Y-20587000D01*
X24560000Y-20833000D01*
X24627000Y-21080000D01*
X24750000Y-21293000D01*
X24751000Y-21294000D01*
X24929000Y-21471000D01*
X24930000Y-21472000D01*
X25142000Y-21595000D01*
X25147000Y-21597000D01*
X25388000Y-21661000D01*
X25637000Y-21661000D01*
X25879000Y-21597000D01*
X25884000Y-21595000D01*
X26096000Y-21472000D01*
X26273000Y-21295000D01*
X26397000Y-21080000D01*
X26398000Y-21079000D01*
X26464000Y-20834000D01*
X26464000Y-20586000D01*
X26398000Y-20342000D01*
X26273000Y-20125000D01*
X26096000Y-19948000D01*
X25884000Y-19825000D01*
X25881000Y-19824000D01*
X25635000Y-19758000D01*
X25389000Y-19758000D01*
X25144000Y-19824000D01*
X24930000Y-19948000D01*
X24929000Y-19949000D01*
X24751000Y-20126000D01*
X24750000Y-20127000D01*
X24627000Y-20340000D01*
X24560000Y-20587000D01*
X18476000Y-20587000D01*
X18476000Y-20547000D01*
X18414000Y-20312000D01*
X18411000Y-20304000D01*
X18290000Y-20095000D01*
X18113000Y-19918000D01*
X17902000Y-19796000D01*
X17903000Y-19796000D01*
X17660000Y-19730000D01*
X17416000Y-19730000D01*
X17173000Y-19796000D01*
X16962000Y-19918000D01*
X16785000Y-20095000D01*
X16664000Y-20304000D01*
X16663000Y-20307000D01*
X16598000Y-20549000D01*
X10400000Y-20549000D01*
X10400000Y-18049000D01*
X16598000Y-18049000D01*
X16598000Y-18291000D01*
X16663000Y-18533000D01*
X16664000Y-18536000D01*
X16785000Y-18745000D01*
X16962000Y-18922000D01*
X17171000Y-19043000D01*
X17174000Y-19044000D01*
X17417000Y-19109000D01*
X17659000Y-19109000D01*
X17901000Y-19044000D01*
X17904000Y-19043000D01*
X18113000Y-18922000D01*
X18290000Y-18745000D01*
X18411000Y-18536000D01*
X18413000Y-18532000D01*
X18414000Y-18529000D01*
X18414000Y-18528000D01*
X18476000Y-18293000D01*
X18476000Y-18047000D01*
X24560000Y-18047000D01*
X24560000Y-18293000D01*
X24628000Y-18542000D01*
X24750000Y-18753000D01*
X24753000Y-18756000D01*
X24929000Y-18931000D01*
X24930000Y-18932000D01*
X25142000Y-19055000D01*
X25147000Y-19057000D01*
X25388000Y-19121000D01*
X25637000Y-19121000D01*
X25879000Y-19057000D01*
X25884000Y-19055000D01*
X26096000Y-18932000D01*
X26272000Y-18756000D01*
X26397000Y-18541000D01*
X26464000Y-18294000D01*
X26464000Y-18046000D01*
X26400000Y-17807000D01*
X26398000Y-17802000D01*
X26273000Y-17585000D01*
X26096000Y-17408000D01*
X25884000Y-17285000D01*
X25881000Y-17284000D01*
X25635000Y-17218000D01*
X25389000Y-17218000D01*
X25144000Y-17284000D01*
X24930000Y-17408000D01*
X24929000Y-17409000D01*
X24751000Y-17586000D01*
X24749000Y-17589000D01*
X24627000Y-17800000D01*
X24560000Y-18047000D01*
X18476000Y-18047000D01*
X18413000Y-17810000D01*
X18411000Y-17804000D01*
X18290000Y-17595000D01*
X18113000Y-17418000D01*
X17902000Y-17296000D01*
X17660000Y-17230000D01*
X17416000Y-17230000D01*
X17173000Y-17296000D01*
X16962000Y-17418000D01*
X16785000Y-17595000D01*
X16664000Y-17804000D01*
X16663000Y-17807000D01*
X16598000Y-18049000D01*
X10400000Y-18049000D01*
X10400000Y-15549000D01*
X16598000Y-15549000D01*
X16598000Y-15791000D01*
X16663000Y-16033000D01*
X16664000Y-16036000D01*
X16785000Y-16245000D01*
X16962000Y-16422000D01*
X17171000Y-16543000D01*
X17174000Y-16544000D01*
X17417000Y-16609000D01*
X17659000Y-16609000D01*
X17901000Y-16544000D01*
X17904000Y-16543000D01*
X18113000Y-16422000D01*
X18290000Y-16245000D01*
X18411000Y-16036000D01*
X18414000Y-16028000D01*
X18476000Y-15793000D01*
X18476000Y-15547000D01*
X18465447Y-15507000D01*
X24560000Y-15507000D01*
X24560000Y-15753000D01*
X24627000Y-16000000D01*
X24750000Y-16213000D01*
X24751000Y-16214000D01*
X24929000Y-16391000D01*
X24930000Y-16392000D01*
X25142000Y-16515000D01*
X25147000Y-16517000D01*
X25388000Y-16581000D01*
X25637000Y-16581000D01*
X25879000Y-16517000D01*
X25884000Y-16515000D01*
X26096000Y-16392000D01*
X26273000Y-16215000D01*
X26398000Y-15998000D01*
X26464000Y-15754000D01*
X26464000Y-15506000D01*
X26398000Y-15262000D01*
X26273000Y-15045000D01*
X26096000Y-14868000D01*
X25884000Y-14745000D01*
X25881000Y-14744000D01*
X25635000Y-14678000D01*
X25389000Y-14678000D01*
X25144000Y-14744000D01*
X24930000Y-14868000D01*
X24929000Y-14869000D01*
X24751000Y-15046000D01*
X24750000Y-15047000D01*
X24627000Y-15260000D01*
X24560000Y-15507000D01*
X18465447Y-15507000D01*
X18414000Y-15312000D01*
X18411000Y-15304000D01*
X18290000Y-15095000D01*
X18113000Y-14918000D01*
X17902000Y-14796000D01*
X17903000Y-14796000D01*
X17660000Y-14730000D01*
X17416000Y-14730000D01*
X17173000Y-14796000D01*
X16962000Y-14918000D01*
X16785000Y-15095000D01*
X16664000Y-15304000D01*
X16663000Y-15307000D01*
X16598000Y-15549000D01*
X10400000Y-15549000D01*
X10400000Y-13049000D01*
X16598000Y-13049000D01*
X16598000Y-13291000D01*
X16663000Y-13533000D01*
X16664000Y-13536000D01*
X16785000Y-13745000D01*
X16962000Y-13922000D01*
X17171000Y-14043000D01*
X17174000Y-14044000D01*
X17417000Y-14109000D01*
X17659000Y-14109000D01*
X17901000Y-14044000D01*
X17904000Y-14043000D01*
X18113000Y-13922000D01*
X18290000Y-13745000D01*
X18411000Y-13536000D01*
X18414000Y-13528000D01*
X18476000Y-13293000D01*
X18476000Y-13047000D01*
X18452519Y-12958000D01*
X24494000Y-12958000D01*
X24494000Y-13222000D01*
X24564000Y-13484000D01*
X24565000Y-13487000D01*
X24697000Y-13714000D01*
X24698000Y-13715000D01*
X24886000Y-13904000D01*
X25119000Y-14038000D01*
X25381000Y-14108000D01*
X25644000Y-14108000D01*
X25907000Y-14038000D01*
X25906000Y-14038000D01*
X26139000Y-13904000D01*
X26327000Y-13715000D01*
X26328000Y-13714000D01*
X26460000Y-13487000D01*
X26461000Y-13484000D01*
X26531000Y-13222000D01*
X26531000Y-12958000D01*
X26461000Y-12696000D01*
X26460000Y-12693000D01*
X26328000Y-12466000D01*
X26327000Y-12465000D01*
X26139000Y-12276000D01*
X25906000Y-12142000D01*
X25905000Y-12141000D01*
X25645000Y-12071000D01*
X25380000Y-12071000D01*
X25120000Y-12141000D01*
X25119000Y-12142000D01*
X24886000Y-12276000D01*
X24698000Y-12465000D01*
X24697000Y-12466000D01*
X24565000Y-12693000D01*
X24564000Y-12696000D01*
X24494000Y-12958000D01*
X18452519Y-12958000D01*
X18414000Y-12812000D01*
X18411000Y-12804000D01*
X18290000Y-12595000D01*
X18113000Y-12418000D01*
X17902000Y-12296000D01*
X17903000Y-12296000D01*
X17660000Y-12230000D01*
X17416000Y-12230000D01*
X17173000Y-12296000D01*
X16962000Y-12418000D01*
X16785000Y-12595000D01*
X16664000Y-12804000D01*
X16663000Y-12807000D01*
X16598000Y-13049000D01*
X10400000Y-13049000D01*
X10400000Y-10488000D01*
X10488000Y-10400000D01*
X51512000Y-10400000D01*
X51600000Y-10488000D01*
X51600000Y-54512000D01*
X51512000Y-54600000D01*
X41589000Y-54600000D01*
X41508000Y-54428000D01*
X41569000Y-54354000D01*
X41701000Y-54125000D01*
X41772000Y-53862000D01*
X41772000Y-53598000D01*
X41701000Y-53335000D01*
X41569000Y-53106000D01*
X41377000Y-52914000D01*
X41147000Y-52782000D01*
X41148000Y-52782000D01*
X40885000Y-52712000D01*
X40621000Y-52712000D01*
X40359000Y-52782000D01*
X40129000Y-52914000D01*
X39937000Y-53106000D01*
X39805000Y-53336000D01*
X39735000Y-53598000D01*
X39735000Y-53862000D01*
X39805000Y-54124000D01*
X39937000Y-54354000D01*
X39998000Y-54428000D01*
X39917000Y-54600000D01*
X26349000Y-54600000D01*
X26268000Y-54428000D01*
X26329000Y-54354000D01*
X26461000Y-54124000D01*
X26531000Y-53862000D01*
X26531000Y-53598000D01*
X26461000Y-53336000D01*
X26329000Y-53106000D01*
X26137000Y-52914000D01*
X25907000Y-52782000D01*
X25908000Y-52782000D01*
X25645000Y-52712000D01*
X25381000Y-52712000D01*
X25119000Y-52782000D01*
X24889000Y-52914000D01*
X24697000Y-53106000D01*
X24565000Y-53335000D01*
X24494000Y-53598000D01*
X24494000Y-53862000D01*
X24565000Y-54125000D01*
X24697000Y-54354000D01*
X24758000Y-54428000D01*
X24677000Y-54600000D01*
G37*
%TD.AperFunction*%
%TD*%
M02*
