%TF.GenerationSoftware,Flux,Flux PCB Export,1*%
%TF.CreationDate,2026-09-25T08:37:17+00:00*%
%TF.ProjectId,input,696e7075-742e-46b6-9963-61645f706362,rev?*%
%TF.SameCoordinates,Original*%
%TF.FileFunction,Legend,Top*%
%TF.FilePolarity,Positive*%
%FSLAX46Y46*%
G04 Gerber Fmt 4.6, Leading zero omitted, Abs format (unit mm)*
G04 Filename: status-indicator-copy*
G04 Build it with Flux! Visit our site at: https://www.flux.ai (Flux) date 2026-09-25 08:37:17*
%MOMM*%
%LPD*%
G01*
G04 APERTURE LIST*
%ADD10C,0.000000*%
%ADD11C,0.100000*%
%ADD12C,0.200000*%
%ADD13C,0.120000*%
%ADD14C,0.050000*%
%ADD15C,0.060000*%
%ADD16C,0.250000*%
G04 APERTURE END LIST*
D10*
%TO.C,*%
G36*
X15821799Y-19143099D02*
G01*
X16116199Y-19143098D01*
X16116199Y-19247098D01*
X15821799Y-19247099D01*
X15326600Y-19519901D01*
X15326600Y-19400701D01*
X15722599Y-19195100D01*
X15326598Y-18989501D01*
X15326598Y-18871101D01*
X15821799Y-19143099D01*
G37*
G36*
X16116197Y-18768698D02*
G01*
X15326597Y-18768701D01*
X15326597Y-18664701D01*
X16031397Y-18664699D01*
X16031395Y-18290299D01*
X16116195Y-18290298D01*
X16116197Y-18768698D01*
G37*
G36*
X16116195Y-18171098D02*
G01*
X15326595Y-18171101D01*
X15326593Y-17675101D01*
X15412193Y-17675101D01*
X15412195Y-18067101D01*
X15665795Y-18067100D01*
X15665793Y-17724700D01*
X15751393Y-17724700D01*
X15751395Y-18067100D01*
X16031395Y-18067099D01*
X16031393Y-17669499D01*
X16116193Y-17669498D01*
X16116195Y-18171098D01*
G37*
G36*
X15795953Y-16971073D02*
G01*
X15837631Y-16976968D01*
X15874053Y-16985574D01*
X15908506Y-16997218D01*
X15943606Y-17013258D01*
X15971113Y-17029393D01*
X15996303Y-17047702D01*
X16019178Y-17068185D01*
X16037963Y-17088692D01*
X16056416Y-17113326D01*
X16072597Y-17140124D01*
X16085316Y-17166027D01*
X16096780Y-17196008D01*
X16109292Y-17245411D01*
X16115481Y-17298539D01*
X16116193Y-17539898D01*
X15326593Y-17539901D01*
X15326598Y-17435901D01*
X15412192Y-17435901D01*
X16031392Y-17435899D01*
X16030492Y-17300680D01*
X16026086Y-17266274D01*
X16016998Y-17231405D01*
X16006257Y-17205196D01*
X15994214Y-17183652D01*
X15979820Y-17163759D01*
X15960818Y-17143351D01*
X15938985Y-17125203D01*
X15917469Y-17111291D01*
X15890904Y-17098149D01*
X15865191Y-17088699D01*
X15830273Y-17079840D01*
X15792269Y-17074262D01*
X15755427Y-17072047D01*
X15692805Y-17071915D01*
X15656436Y-17073443D01*
X15626074Y-17076899D01*
X15594127Y-17083149D01*
X15567696Y-17090802D01*
X15543115Y-17100430D01*
X15523124Y-17110475D01*
X15504549Y-17122032D01*
X15487391Y-17135101D01*
X15471997Y-17149557D01*
X15456559Y-17167626D01*
X15444938Y-17184790D01*
X15433813Y-17205952D01*
X15420641Y-17243861D01*
X15413542Y-17286126D01*
X15412192Y-17314301D01*
X15412192Y-17435901D01*
X15326598Y-17435901D01*
X15326603Y-17314301D01*
X15326603Y-17314282D01*
X15328774Y-17273500D01*
X15334117Y-17237612D01*
X15341832Y-17206198D01*
X15353321Y-17173545D01*
X15366669Y-17145095D01*
X15385776Y-17113538D01*
X15406250Y-17087002D01*
X15431478Y-17061111D01*
X15457578Y-17039848D01*
X15486378Y-17021117D01*
X15520462Y-17003758D01*
X15553851Y-16990787D01*
X15591991Y-16980100D01*
X15632176Y-16972912D01*
X15674409Y-16969223D01*
X15755429Y-16968795D01*
X15795953Y-16971073D01*
G37*
G36*
X16691262Y-21847408D02*
G01*
X16732329Y-21854444D01*
X16769965Y-21865923D01*
X16801450Y-21880350D01*
X16832509Y-21900347D01*
X16860175Y-21924625D01*
X16882007Y-21950179D01*
X16900342Y-21978852D01*
X16915179Y-22010644D01*
X16926519Y-22045556D01*
X16934900Y-22087200D01*
X16830100Y-22087200D01*
X16822259Y-22054776D01*
X16813086Y-22029970D01*
X16801648Y-22007920D01*
X16787947Y-21988626D01*
X16771981Y-21972088D01*
X16753751Y-21958307D01*
X16729622Y-21945712D01*
X16706487Y-21937903D01*
X16681087Y-21932850D01*
X16653424Y-21930553D01*
X16621387Y-21931280D01*
X16594500Y-21935000D01*
X16569637Y-21941630D01*
X16549237Y-21949968D01*
X16528200Y-21962097D01*
X16509187Y-21977137D01*
X16492200Y-21995087D01*
X16477132Y-22015900D01*
X16464103Y-22039339D01*
X16453226Y-22065372D01*
X16444500Y-22094000D01*
X16438550Y-22121625D01*
X16433888Y-22155154D01*
X16431378Y-22191277D01*
X16431434Y-22306022D01*
X16433809Y-22337097D01*
X16438752Y-22370024D01*
X16447065Y-22404087D01*
X16458346Y-22435493D01*
X16472596Y-22464243D01*
X16489815Y-22490337D01*
X16515991Y-22519444D01*
X16545670Y-22542087D01*
X16578848Y-22558261D01*
X16612579Y-22567448D01*
X16655700Y-22571200D01*
X16710500Y-22568000D01*
X16756721Y-22558797D01*
X16775348Y-22552441D01*
X16791341Y-22544963D01*
X16812460Y-22531303D01*
X16830900Y-22514400D01*
X16830900Y-22336800D01*
X16648500Y-22336800D01*
X16648500Y-22252000D01*
X16934900Y-22252000D01*
X16934900Y-22541600D01*
X16912600Y-22568600D01*
X16886500Y-22592000D01*
X16856600Y-22611800D01*
X16822900Y-22628000D01*
X16785400Y-22640600D01*
X16742269Y-22650043D01*
X16695752Y-22655422D01*
X16648920Y-22656755D01*
X16611043Y-22654295D01*
X16574881Y-22648072D01*
X16540436Y-22638086D01*
X16507708Y-22624337D01*
X16476726Y-22606842D01*
X16448250Y-22586050D01*
X16422613Y-22562155D01*
X16399815Y-22535157D01*
X16378437Y-22502612D01*
X16360402Y-22466425D01*
X16346106Y-22427400D01*
X16335038Y-22382869D01*
X16329347Y-22345219D01*
X16326356Y-22302400D01*
X16326181Y-22208928D01*
X16328131Y-22166203D01*
X16333433Y-22121126D01*
X16340908Y-22083713D01*
X16350983Y-22048801D01*
X16365425Y-22012512D01*
X16381025Y-21982912D01*
X16401683Y-21952601D01*
X16425491Y-21925615D01*
X16451991Y-21902480D01*
X16484554Y-21881340D01*
X16520398Y-21865004D01*
X16555462Y-21854409D01*
X16597541Y-21847202D01*
X16642900Y-21844800D01*
X16691262Y-21847408D01*
G37*
G36*
X17212500Y-22560800D02*
G01*
X17586900Y-22560800D01*
X17586900Y-22645600D01*
X17108500Y-22645600D01*
X17108500Y-21856000D01*
X17212500Y-21856000D01*
X17212500Y-22560800D01*
G37*
G36*
X18202100Y-21941600D02*
G01*
X17810100Y-21941600D01*
X17810100Y-22195200D01*
X18152500Y-22195200D01*
X18152500Y-22280800D01*
X17810100Y-22280800D01*
X17810100Y-22560800D01*
X18207700Y-22560800D01*
X18207700Y-22645600D01*
X17706100Y-22645600D01*
X17706100Y-21856000D01*
X18202100Y-21856000D01*
X18202100Y-21941600D01*
G37*
G36*
X18562919Y-21856011D02*
G01*
X18603702Y-21858182D01*
X18639589Y-21863526D01*
X18671004Y-21871241D01*
X18701000Y-21881650D01*
X18732106Y-21896078D01*
X18763663Y-21915184D01*
X18790199Y-21935659D01*
X18814204Y-21958834D01*
X18837352Y-21986987D01*
X18856084Y-22015787D01*
X18873443Y-22049872D01*
X18886413Y-22083261D01*
X18897100Y-22121400D01*
X18904288Y-22161586D01*
X18907977Y-22203818D01*
X18908405Y-22284838D01*
X18906127Y-22325362D01*
X18900231Y-22367041D01*
X18891625Y-22403462D01*
X18879981Y-22437916D01*
X18863941Y-22473015D01*
X18847806Y-22500522D01*
X18829497Y-22525712D01*
X18809014Y-22548587D01*
X18788506Y-22567372D01*
X18763872Y-22585825D01*
X18737074Y-22602006D01*
X18708511Y-22615877D01*
X18681190Y-22626189D01*
X18631787Y-22638700D01*
X18578659Y-22644889D01*
X18337300Y-22645600D01*
X18337300Y-22560800D01*
X18337300Y-21941600D01*
X18441300Y-21941600D01*
X18441300Y-22560800D01*
X18576518Y-22559900D01*
X18610925Y-22555494D01*
X18645794Y-22546406D01*
X18669194Y-22537006D01*
X18693546Y-22523622D01*
X18713440Y-22509229D01*
X18733848Y-22490227D01*
X18751996Y-22468394D01*
X18765909Y-22446878D01*
X18777721Y-22423388D01*
X18788500Y-22394600D01*
X18797359Y-22359682D01*
X18802937Y-22321678D01*
X18805152Y-22284836D01*
X18805285Y-22222214D01*
X18803757Y-22185845D01*
X18800301Y-22155483D01*
X18794870Y-22126970D01*
X18786399Y-22097105D01*
X18768253Y-22055302D01*
X18756912Y-22036525D01*
X18742100Y-22016800D01*
X18725475Y-21999350D01*
X18709575Y-21985968D01*
X18692411Y-21974347D01*
X18671248Y-21963222D01*
X18633340Y-21950049D01*
X18591075Y-21942950D01*
X18562900Y-21941600D01*
X18441300Y-21941600D01*
X18337300Y-21941600D01*
X18337300Y-21856000D01*
X18562919Y-21856011D01*
G37*
G36*
X46274600Y-16062700D02*
G01*
X46173800Y-16062700D01*
X46173800Y-15393900D01*
X45971400Y-15468300D01*
X45971400Y-15377100D01*
X46259400Y-15269100D01*
X46274600Y-15269100D01*
X46274600Y-16062700D01*
G37*
G36*
X46839075Y-15262800D02*
G01*
X46873661Y-15266977D01*
X46905505Y-15274556D01*
X46934607Y-15285539D01*
X46958686Y-15298477D01*
X46982555Y-15315956D01*
X47003334Y-15336475D01*
X47020350Y-15359328D01*
X47032538Y-15382113D01*
X47042334Y-15409388D01*
X47047959Y-15436192D01*
X47050538Y-15467888D01*
X47050019Y-15488578D01*
X47046967Y-15511263D01*
X47041300Y-15534750D01*
X47033017Y-15559038D01*
X47022119Y-15584128D01*
X47008605Y-15610020D01*
X46977036Y-15659569D01*
X46948554Y-15697297D01*
X46915423Y-15736450D01*
X46689800Y-15981100D01*
X47086600Y-15981100D01*
X47086600Y-16062700D01*
X46569000Y-16062700D01*
X46569000Y-15990700D01*
X46842600Y-15686700D01*
X46882913Y-15638700D01*
X46909511Y-15602606D01*
X46927978Y-15571997D01*
X46940250Y-15541850D01*
X46947228Y-15510947D01*
X46948856Y-15477487D01*
X46944652Y-15445397D01*
X46934625Y-15416850D01*
X46918777Y-15391847D01*
X46897228Y-15370706D01*
X46873033Y-15356263D01*
X46845338Y-15347464D01*
X46814144Y-15344310D01*
X46776700Y-15346950D01*
X46745400Y-15354900D01*
X46718300Y-15368150D01*
X46695400Y-15386700D01*
X46677550Y-15410350D01*
X46664800Y-15438100D01*
X46657150Y-15469950D01*
X46654600Y-15505900D01*
X46553800Y-15505900D01*
X46555519Y-15472685D01*
X46561380Y-15438540D01*
X46570317Y-15409673D01*
X46584119Y-15380310D01*
X46602080Y-15353453D01*
X46622017Y-15331210D01*
X46647352Y-15309741D01*
X46672809Y-15293662D01*
X46700571Y-15280866D01*
X46730638Y-15271350D01*
X46763009Y-15265116D01*
X46801279Y-15262048D01*
X46839075Y-15262800D01*
G37*
G36*
X47480200Y-15924300D02*
G01*
X47706600Y-15273100D01*
X47820200Y-15273100D01*
X47527400Y-16062700D01*
X47435400Y-16062700D01*
X47142600Y-15273100D01*
X47256200Y-15273100D01*
X47480200Y-15924300D01*
G37*
G36*
X46249562Y-17870708D02*
G01*
X46290629Y-17877744D01*
X46328265Y-17889223D01*
X46359750Y-17903650D01*
X46390809Y-17923647D01*
X46418475Y-17947925D01*
X46440307Y-17973479D01*
X46458642Y-18002152D01*
X46473479Y-18033944D01*
X46484819Y-18068856D01*
X46493200Y-18110500D01*
X46388400Y-18110500D01*
X46380559Y-18078076D01*
X46371386Y-18053270D01*
X46359948Y-18031220D01*
X46346247Y-18011926D01*
X46330281Y-17995388D01*
X46312051Y-17981607D01*
X46287922Y-17969012D01*
X46264787Y-17961203D01*
X46239388Y-17956150D01*
X46211724Y-17953853D01*
X46179688Y-17954580D01*
X46152800Y-17958300D01*
X46127938Y-17964930D01*
X46107538Y-17973268D01*
X46086500Y-17985397D01*
X46067488Y-18000437D01*
X46050500Y-18018387D01*
X46035432Y-18039200D01*
X46022403Y-18062639D01*
X46011526Y-18088672D01*
X46002800Y-18117300D01*
X45996850Y-18144925D01*
X45992188Y-18178454D01*
X45989678Y-18214577D01*
X45989734Y-18329322D01*
X45992109Y-18360397D01*
X45997052Y-18393324D01*
X46005365Y-18427387D01*
X46016646Y-18458793D01*
X46030896Y-18487543D01*
X46048115Y-18513637D01*
X46074291Y-18542744D01*
X46103970Y-18565387D01*
X46137148Y-18581561D01*
X46170879Y-18590748D01*
X46214000Y-18594500D01*
X46268800Y-18591300D01*
X46315021Y-18582097D01*
X46333648Y-18575741D01*
X46349641Y-18568263D01*
X46370760Y-18554603D01*
X46389200Y-18537700D01*
X46389200Y-18360100D01*
X46206800Y-18360100D01*
X46206800Y-18275300D01*
X46493200Y-18275300D01*
X46493200Y-18564900D01*
X46470900Y-18591900D01*
X46444800Y-18615300D01*
X46414900Y-18635100D01*
X46381200Y-18651300D01*
X46343700Y-18663900D01*
X46300569Y-18673343D01*
X46254052Y-18678722D01*
X46207220Y-18680055D01*
X46169343Y-18677595D01*
X46133181Y-18671372D01*
X46098736Y-18661386D01*
X46066008Y-18647637D01*
X46035026Y-18630142D01*
X46006550Y-18609350D01*
X45980913Y-18585455D01*
X45958115Y-18558457D01*
X45936738Y-18525912D01*
X45918702Y-18489725D01*
X45904406Y-18450700D01*
X45893338Y-18406169D01*
X45887647Y-18368519D01*
X45884656Y-18325700D01*
X45884481Y-18232228D01*
X45886431Y-18189503D01*
X45891733Y-18144426D01*
X45899208Y-18107013D01*
X45909283Y-18072101D01*
X45923725Y-18035812D01*
X45939325Y-18006212D01*
X45959983Y-17975901D01*
X45983791Y-17948915D01*
X46010291Y-17925780D01*
X46042854Y-17904640D01*
X46078698Y-17888304D01*
X46113763Y-17877709D01*
X46155841Y-17870502D01*
X46201200Y-17868100D01*
X46249562Y-17870708D01*
G37*
G36*
X47170000Y-18490500D02*
G01*
X47170000Y-17879300D01*
X47273200Y-17879300D01*
X47273200Y-18668900D01*
X47169200Y-18668900D01*
X46770800Y-18060100D01*
X46770800Y-18668900D01*
X46666800Y-18668900D01*
X46666800Y-17879300D01*
X46770800Y-17879300D01*
X47170000Y-18490500D01*
G37*
G36*
X47684419Y-17879311D02*
G01*
X47725202Y-17881482D01*
X47761089Y-17886826D01*
X47792504Y-17894541D01*
X47825157Y-17906030D01*
X47853606Y-17919378D01*
X47885163Y-17938484D01*
X47911699Y-17958959D01*
X47937590Y-17984187D01*
X47958852Y-18010287D01*
X47977584Y-18039087D01*
X47994943Y-18073172D01*
X48007913Y-18106561D01*
X48018600Y-18144700D01*
X48025788Y-18184886D01*
X48029477Y-18227118D01*
X48029905Y-18308138D01*
X48027627Y-18348662D01*
X48021731Y-18390341D01*
X48013125Y-18426762D01*
X48001481Y-18461216D01*
X47985441Y-18496315D01*
X47969306Y-18523822D01*
X47950997Y-18549012D01*
X47930514Y-18571887D01*
X47910006Y-18590672D01*
X47885372Y-18609125D01*
X47858574Y-18625306D01*
X47830011Y-18639177D01*
X47802690Y-18649489D01*
X47753288Y-18662000D01*
X47700159Y-18668189D01*
X47458800Y-18668900D01*
X47458800Y-18584100D01*
X47458800Y-17964900D01*
X47562800Y-17964900D01*
X47562800Y-18584100D01*
X47698018Y-18583200D01*
X47735723Y-18578152D01*
X47767294Y-18569706D01*
X47793503Y-18558966D01*
X47815046Y-18546922D01*
X47834940Y-18532529D01*
X47855348Y-18513527D01*
X47873496Y-18491694D01*
X47887409Y-18470178D01*
X47900550Y-18443612D01*
X47910000Y-18417900D01*
X47918859Y-18382982D01*
X47924438Y-18344978D01*
X47926652Y-18308136D01*
X47926785Y-18245514D01*
X47925257Y-18209145D01*
X47921801Y-18178783D01*
X47915552Y-18146836D01*
X47907899Y-18120405D01*
X47889753Y-18078602D01*
X47878413Y-18059825D01*
X47863600Y-18040100D01*
X47846975Y-18022650D01*
X47831075Y-18009268D01*
X47813911Y-17997647D01*
X47792748Y-17986522D01*
X47754840Y-17973349D01*
X47712575Y-17966250D01*
X47684400Y-17964900D01*
X47562800Y-17964900D01*
X47458800Y-17964900D01*
X47458800Y-17879300D01*
X47684419Y-17879311D01*
G37*
G36*
X16116199Y-13070598D02*
G01*
X15447399Y-13070601D01*
X15521800Y-13273001D01*
X15430600Y-13273001D01*
X15322599Y-12985001D01*
X15322599Y-12969801D01*
X16116199Y-12969798D01*
X16116199Y-13070598D01*
G37*
G36*
X16116197Y-12675398D02*
G01*
X16044197Y-12675399D01*
X15740196Y-12401800D01*
X15692196Y-12361487D01*
X15656102Y-12334889D01*
X15625493Y-12316422D01*
X15595346Y-12304150D01*
X15564443Y-12297172D01*
X15530984Y-12295544D01*
X15498893Y-12299749D01*
X15470346Y-12309776D01*
X15445343Y-12325624D01*
X15424203Y-12347173D01*
X15409759Y-12371368D01*
X15400961Y-12399063D01*
X15397806Y-12430257D01*
X15400447Y-12467701D01*
X15408397Y-12499001D01*
X15421647Y-12526101D01*
X15440197Y-12549001D01*
X15463847Y-12566851D01*
X15491597Y-12579601D01*
X15523447Y-12587251D01*
X15559397Y-12589800D01*
X15559398Y-12690600D01*
X15526183Y-12688882D01*
X15492038Y-12683021D01*
X15463170Y-12674084D01*
X15433808Y-12660282D01*
X15406950Y-12642321D01*
X15384708Y-12622384D01*
X15363238Y-12597049D01*
X15347160Y-12571592D01*
X15334363Y-12543830D01*
X15324847Y-12513764D01*
X15318612Y-12481393D01*
X15315544Y-12443123D01*
X15316296Y-12405326D01*
X15320473Y-12370741D01*
X15328052Y-12338897D01*
X15339035Y-12309794D01*
X15351973Y-12285716D01*
X15369452Y-12261846D01*
X15389971Y-12241067D01*
X15412824Y-12224051D01*
X15435609Y-12211863D01*
X15462883Y-12202066D01*
X15489688Y-12196441D01*
X15521384Y-12193863D01*
X15542074Y-12194382D01*
X15564759Y-12197433D01*
X15588246Y-12203100D01*
X15612534Y-12211383D01*
X15637624Y-12222281D01*
X15663515Y-12235795D01*
X15713065Y-12267364D01*
X15750793Y-12295845D01*
X15789946Y-12328977D01*
X16034597Y-12554599D01*
X16034596Y-12157799D01*
X16116196Y-12157798D01*
X16116197Y-12675398D01*
G37*
G36*
X16116194Y-11716998D02*
G01*
X16116194Y-11808998D01*
X15326595Y-12101801D01*
X15326595Y-11988201D01*
X15977794Y-11764199D01*
X15326593Y-11537801D01*
X15326593Y-11424201D01*
X16116194Y-11716998D01*
G37*
G36*
X16116198Y-15740398D02*
G01*
X15796999Y-15911600D01*
X15796999Y-16097200D01*
X16116199Y-16097198D01*
X16116200Y-16201998D01*
X15326600Y-16202001D01*
X15326650Y-16097201D01*
X15412199Y-16097201D01*
X15711399Y-16097200D01*
X15711389Y-15934783D01*
X15709201Y-15902583D01*
X15704279Y-15877420D01*
X15696545Y-15854508D01*
X15686984Y-15835481D01*
X15673859Y-15816881D01*
X15654026Y-15797357D01*
X15631192Y-15782828D01*
X15605370Y-15773310D01*
X15578573Y-15768946D01*
X15544178Y-15769255D01*
X15513836Y-15774476D01*
X15487272Y-15784443D01*
X15463103Y-15800305D01*
X15446651Y-15817251D01*
X15433339Y-15837685D01*
X15422620Y-15863235D01*
X15416027Y-15890251D01*
X15412237Y-15932888D01*
X15412199Y-16097201D01*
X15326650Y-16097201D01*
X15326732Y-15928013D01*
X15329107Y-15888701D01*
X15335148Y-15848976D01*
X15341798Y-15822401D01*
X15349176Y-15800748D01*
X15358007Y-15780587D01*
X15369882Y-15759375D01*
X15383657Y-15740112D01*
X15399147Y-15722734D01*
X15416366Y-15707546D01*
X15432888Y-15696103D01*
X15453435Y-15685134D01*
X15475757Y-15676415D01*
X15502991Y-15669296D01*
X15529084Y-15665358D01*
X15560562Y-15663618D01*
X15586729Y-15664557D01*
X15614618Y-15668663D01*
X15638956Y-15675324D01*
X15660079Y-15683851D01*
X15681829Y-15695795D01*
X15702302Y-15710574D01*
X15721033Y-15727768D01*
X15736474Y-15745456D01*
X15751432Y-15766854D01*
X15763414Y-15788397D01*
X15774598Y-15814000D01*
X16109798Y-15628398D01*
X16116198Y-15628398D01*
X16116198Y-15740398D01*
G37*
G36*
X16116197Y-15517198D02*
G01*
X15326597Y-15517201D01*
X15326597Y-15413201D01*
X16031397Y-15413199D01*
X16031395Y-15038799D01*
X16116195Y-15038798D01*
X16116197Y-15517198D01*
G37*
G36*
X16116195Y-14919598D02*
G01*
X15326595Y-14919601D01*
X15326593Y-14423601D01*
X15412193Y-14423601D01*
X15412195Y-14815601D01*
X15665795Y-14815600D01*
X15665793Y-14473200D01*
X15751393Y-14473200D01*
X15751395Y-14815600D01*
X16031395Y-14815599D01*
X16031393Y-14417999D01*
X16116193Y-14417998D01*
X16116195Y-14919598D01*
G37*
G36*
X15795952Y-13719573D02*
G01*
X15837631Y-13725468D01*
X15874053Y-13734074D01*
X15908506Y-13745718D01*
X15943606Y-13761758D01*
X15968708Y-13776336D01*
X15994109Y-13794447D01*
X16017194Y-13814733D01*
X16037963Y-13837192D01*
X16056416Y-13861826D01*
X16072597Y-13888624D01*
X16086468Y-13917188D01*
X16096780Y-13944508D01*
X16109292Y-13993911D01*
X16115481Y-14047039D01*
X16116193Y-14288398D01*
X15326593Y-14288401D01*
X15326598Y-14184401D01*
X15412192Y-14184401D01*
X16031392Y-14184399D01*
X16030492Y-14049180D01*
X16025443Y-14011475D01*
X16016998Y-13979905D01*
X16007598Y-13956505D01*
X15994214Y-13932152D01*
X15979820Y-13912259D01*
X15960818Y-13891851D01*
X15938985Y-13873703D01*
X15917469Y-13859791D01*
X15893979Y-13847978D01*
X15865191Y-13837199D01*
X15830273Y-13828340D01*
X15792269Y-13822762D01*
X15755427Y-13820547D01*
X15692805Y-13820415D01*
X15656436Y-13821943D01*
X15626074Y-13825399D01*
X15597561Y-13830831D01*
X15567696Y-13839302D01*
X15543115Y-13848930D01*
X15523124Y-13858975D01*
X15504549Y-13870532D01*
X15487391Y-13883601D01*
X15469941Y-13900226D01*
X15456559Y-13916126D01*
X15444938Y-13933290D01*
X15433813Y-13954452D01*
X15420641Y-13992361D01*
X15413542Y-14034626D01*
X15412192Y-14062801D01*
X15412192Y-14184401D01*
X15326598Y-14184401D01*
X15326603Y-14062801D01*
X15326603Y-14062782D01*
X15328774Y-14022000D01*
X15334117Y-13986112D01*
X15341832Y-13954698D01*
X15352241Y-13924701D01*
X15366669Y-13893595D01*
X15385775Y-13862038D01*
X15406250Y-13835502D01*
X15429425Y-13811497D01*
X15457578Y-13788348D01*
X15486378Y-13769617D01*
X15520462Y-13752258D01*
X15553851Y-13739287D01*
X15591991Y-13728600D01*
X15632176Y-13721412D01*
X15674409Y-13717723D01*
X15755429Y-13717295D01*
X15795952Y-13719573D01*
G37*
%TO.C,U2*%
G36*
X22542321Y-33523149D02*
G01*
X22594721Y-33528878D01*
X22643958Y-33539941D01*
X22690033Y-33556336D01*
X22732946Y-33578065D01*
X22768863Y-33602180D01*
X22802218Y-33630616D01*
X22829044Y-33659153D01*
X22855535Y-33694208D01*
X22875835Y-33727982D01*
X22895020Y-33768919D01*
X22910338Y-33812970D01*
X22920706Y-33854741D01*
X22929370Y-33910415D01*
X22934039Y-33978211D01*
X22932702Y-34022214D01*
X22928691Y-34064211D01*
X22919606Y-34115261D01*
X22906100Y-34162996D01*
X22890384Y-34202644D01*
X22868529Y-34244117D01*
X22845391Y-34278199D01*
X22815292Y-34313452D01*
X22785676Y-34341392D01*
X22753400Y-34365523D01*
X22718465Y-34385843D01*
X22680871Y-34402353D01*
X22640618Y-34415053D01*
X22597706Y-34423944D01*
X22557977Y-34428597D01*
X22516212Y-34430334D01*
X21662772Y-34430340D01*
X21662771Y-34266510D01*
X22523739Y-34266339D01*
X22556080Y-34264290D01*
X22586555Y-34259900D01*
X22615164Y-34253167D01*
X22641909Y-34244094D01*
X22678528Y-34226093D01*
X22710950Y-34202823D01*
X22736611Y-34176965D01*
X22759441Y-34144401D01*
X22775740Y-34110629D01*
X22788472Y-34069507D01*
X22795515Y-34027891D01*
X22798149Y-33978212D01*
X22795514Y-33927715D01*
X22788471Y-33885583D01*
X22777000Y-33847428D01*
X22759438Y-33810340D01*
X22736608Y-33777985D01*
X22708632Y-33750192D01*
X22679109Y-33729063D01*
X22642795Y-33711063D01*
X22616204Y-33701989D01*
X22587708Y-33695257D01*
X22557308Y-33690867D01*
X22525002Y-33688819D01*
X21662766Y-33688660D01*
X21662765Y-33522290D01*
X22542321Y-33523149D01*
G37*
G36*
X22916254Y-33302571D02*
G01*
X22801954Y-33302572D01*
X22319350Y-32868235D01*
X22243150Y-32804240D01*
X22185851Y-32762015D01*
X22137258Y-32732699D01*
X22113479Y-32721908D01*
X22089400Y-32713218D01*
X22065021Y-32706629D01*
X22040341Y-32702140D01*
X22013076Y-32699640D01*
X21987224Y-32699556D01*
X21961049Y-32701738D01*
X21936280Y-32706231D01*
X21912918Y-32713035D01*
X21890962Y-32722149D01*
X21870413Y-32733573D01*
X21851270Y-32747309D01*
X21833476Y-32763431D01*
X21817710Y-32781517D01*
X21805804Y-32798900D01*
X21794781Y-32819927D01*
X21786270Y-32842511D01*
X21780813Y-32863892D01*
X21777046Y-32889417D01*
X21775806Y-32913413D01*
X21776843Y-32945511D01*
X21779998Y-32972856D01*
X21785257Y-32998533D01*
X21792619Y-33022544D01*
X21802085Y-33044888D01*
X21813654Y-33065565D01*
X21827326Y-33084576D01*
X21843102Y-33101919D01*
X21861061Y-33117099D01*
X21880647Y-33130256D01*
X21901860Y-33141388D01*
X21924700Y-33150496D01*
X21949167Y-33157580D01*
X21975262Y-33162640D01*
X22002984Y-33165676D01*
X22032333Y-33166688D01*
X22032334Y-33326708D01*
X21974513Y-33323406D01*
X21925400Y-33314676D01*
X21875171Y-33298769D01*
X21832960Y-33278578D01*
X21790323Y-33250065D01*
X21755013Y-33218415D01*
X21720930Y-33178195D01*
X21695405Y-33137783D01*
X21673345Y-33089103D01*
X21658759Y-33041006D01*
X21649383Y-32989252D01*
X21645215Y-32933838D01*
X21646409Y-32873836D01*
X21653039Y-32818932D01*
X21665071Y-32768379D01*
X21682506Y-32722178D01*
X21705344Y-32680330D01*
X21730793Y-32646062D01*
X21763367Y-32613074D01*
X21799645Y-32586061D01*
X21835817Y-32566713D01*
X21879115Y-32551160D01*
X21921667Y-32542230D01*
X21971984Y-32538137D01*
X22004830Y-32538960D01*
X22040842Y-32543805D01*
X22078127Y-32552801D01*
X22116685Y-32565950D01*
X22149789Y-32580079D01*
X22190679Y-32600840D01*
X22232843Y-32625753D01*
X22276278Y-32654819D01*
X22336172Y-32700033D01*
X22398328Y-32752628D01*
X22786712Y-33110802D01*
X22786708Y-32480882D01*
X22916248Y-32480881D01*
X22916254Y-33302571D01*
G37*
D11*
X24242728Y-55000021D02*
X24242411Y-11820021D01*
X24242411Y-11820021D02*
X42022411Y-11819891D01*
X42022411Y-11819891D02*
X42022728Y-54999891D01*
X42022728Y-54999891D02*
X24242728Y-55000021D01*
X42452700Y-51189888D02*
X42453128Y-51183361D01*
X42453128Y-51183361D02*
X42454404Y-51176947D01*
X42454404Y-51176947D02*
X42456506Y-51170753D01*
X42456506Y-51170753D02*
X42459399Y-51164887D01*
X42459399Y-51164887D02*
X42463032Y-51159449D01*
X42463032Y-51159449D02*
X42467344Y-51154532D01*
X42467344Y-51154532D02*
X42472262Y-51150220D01*
X42472262Y-51150220D02*
X42477700Y-51146586D01*
X42477700Y-51146586D02*
X42483565Y-51143693D01*
X42483565Y-51143693D02*
X42489759Y-51141591D01*
X42489759Y-51141591D02*
X42496173Y-51140315D01*
X42496173Y-51140315D02*
X42502700Y-51139887D01*
X42502700Y-51139887D02*
X42509226Y-51140315D01*
X42509226Y-51140315D02*
X42515641Y-51141591D01*
X42515641Y-51141591D02*
X42521834Y-51143693D01*
X42521834Y-51143693D02*
X42527700Y-51146586D01*
X42527700Y-51146586D02*
X42533138Y-51150219D01*
X42533138Y-51150219D02*
X42538055Y-51154532D01*
X42538055Y-51154532D02*
X42542367Y-51159449D01*
X42542367Y-51159449D02*
X42546001Y-51164887D01*
X42546001Y-51164887D02*
X42548894Y-51170753D01*
X42548894Y-51170753D02*
X42550996Y-51176946D01*
X42550996Y-51176946D02*
X42552272Y-51183360D01*
X42552272Y-51183360D02*
X42552700Y-51189887D01*
X42552700Y-51189887D02*
X42552272Y-51196413D01*
X42552272Y-51196413D02*
X42550996Y-51202828D01*
X42550996Y-51202828D02*
X42548894Y-51209021D01*
X42548894Y-51209021D02*
X42546001Y-51214887D01*
X42546001Y-51214887D02*
X42542368Y-51220325D01*
X42542368Y-51220325D02*
X42538056Y-51225242D01*
X42538056Y-51225242D02*
X42533138Y-51229555D01*
X42533138Y-51229555D02*
X42527700Y-51233188D01*
X42527700Y-51233188D02*
X42521835Y-51236081D01*
X42521835Y-51236081D02*
X42515641Y-51238183D01*
X42515641Y-51238183D02*
X42509227Y-51239459D01*
X42509227Y-51239459D02*
X42502700Y-51239887D01*
X42502700Y-51239887D02*
X42496174Y-51239459D01*
X42496174Y-51239459D02*
X42489759Y-51238184D01*
X42489759Y-51238184D02*
X42483566Y-51236081D01*
X42483566Y-51236081D02*
X42477700Y-51233189D01*
X42477700Y-51233189D02*
X42472262Y-51229555D01*
X42472262Y-51229555D02*
X42467345Y-51225243D01*
X42467345Y-51225243D02*
X42463033Y-51220326D01*
X42463033Y-51220326D02*
X42459399Y-51214887D01*
X42459399Y-51214887D02*
X42456506Y-51209022D01*
X42456506Y-51209022D02*
X42454404Y-51202828D01*
X42454404Y-51202828D02*
X42453128Y-51196414D01*
X42453128Y-51196414D02*
X42452700Y-51189888D01*
D12*
X24242728Y-55000021D02*
X24242411Y-11820021D01*
X24242411Y-11820021D02*
X42022411Y-11819891D01*
X42022411Y-11819891D02*
X42022728Y-54999891D01*
X42022728Y-54999891D02*
X24242728Y-55000021D01*
D11*
X23242735Y-56000029D02*
X23242403Y-10820029D01*
X23242403Y-10820029D02*
X43022403Y-10819883D01*
X43022403Y-10819883D02*
X43022735Y-55999883D01*
X43022735Y-55999883D02*
X23242735Y-56000029D01*
D10*
%TO.C,Q4*%
G36*
X14800201Y-28457713D02*
G01*
X14634202Y-28665714D01*
X14640486Y-28693672D01*
X14644714Y-28722421D01*
X14646885Y-28751961D01*
X14646976Y-28783234D01*
X14645164Y-28811640D01*
X14640959Y-28842589D01*
X14635295Y-28869202D01*
X14626756Y-28898133D01*
X14615924Y-28925997D01*
X14604370Y-28949868D01*
X14591003Y-28972896D01*
X14574189Y-28997590D01*
X14557642Y-29018215D01*
X14537197Y-29039924D01*
X14496064Y-29074612D01*
X14470235Y-29091926D01*
X14439264Y-29109310D01*
X14409435Y-29123229D01*
X14378204Y-29135247D01*
X14345627Y-29145326D01*
X14311706Y-29153467D01*
X14276440Y-29159670D01*
X14239829Y-29163935D01*
X14188923Y-29166607D01*
X14104745Y-29166706D01*
X14035636Y-29163261D01*
X13994601Y-29157998D01*
X13955226Y-29150342D01*
X13921207Y-29141406D01*
X13884987Y-29129204D01*
X13850443Y-29114556D01*
X13815028Y-29095757D01*
X13782627Y-29074596D01*
X13753239Y-29051070D01*
X13726864Y-29025182D01*
X13703502Y-28996930D01*
X13683181Y-28966245D01*
X13666203Y-28933637D01*
X13651589Y-28896313D01*
X13641776Y-28860493D01*
X13635389Y-28823137D01*
X13632429Y-28784245D01*
X13632779Y-28761717D01*
X13744296Y-28761717D01*
X13746062Y-28803286D01*
X13753383Y-28841518D01*
X13766258Y-28876677D01*
X13784686Y-28908764D01*
X13803895Y-28932731D01*
X13826821Y-28954642D01*
X13856471Y-28976426D01*
X13886277Y-28993211D01*
X13918970Y-29007266D01*
X13954551Y-29018593D01*
X13993018Y-29027191D01*
X14039146Y-29033543D01*
X14094004Y-29036639D01*
X14186982Y-29036562D01*
X14232388Y-29034221D01*
X14274908Y-29029073D01*
X14318765Y-29020059D01*
X14362891Y-29006139D01*
X14399263Y-28989845D01*
X14432070Y-28970084D01*
X14452919Y-28954286D01*
X14468997Y-28939685D01*
X14485577Y-28921427D01*
X14497923Y-28904731D01*
X14510148Y-28884030D01*
X14518762Y-28865239D01*
X14525652Y-28845481D01*
X14531514Y-28821208D01*
X14535031Y-28795620D01*
X14536203Y-28768715D01*
X14534765Y-28738106D01*
X14531149Y-28712784D01*
X14525331Y-28688826D01*
X14517312Y-28666231D01*
X14507093Y-28645000D01*
X14494671Y-28625134D01*
X14468257Y-28594249D01*
X14452624Y-28580310D01*
X14432393Y-28565349D01*
X14393264Y-28543341D01*
X14348580Y-28525974D01*
X14298342Y-28513248D01*
X14242549Y-28505163D01*
X14186525Y-28501828D01*
X14107201Y-28501718D01*
X14054779Y-28503428D01*
X14006263Y-28508555D01*
X13961654Y-28517100D01*
X13917096Y-28530448D01*
X13880689Y-28546171D01*
X13848190Y-28565311D01*
X13816936Y-28589908D01*
X13793279Y-28615279D01*
X13772614Y-28646571D01*
X13757562Y-28681408D01*
X13748122Y-28719790D01*
X13744296Y-28761717D01*
X13632779Y-28761717D01*
X13633109Y-28740409D01*
X13637314Y-28701533D01*
X13645810Y-28661010D01*
X13657180Y-28625593D01*
X13670491Y-28594831D01*
X13686633Y-28565436D01*
X13707241Y-28535219D01*
X13728540Y-28509897D01*
X13752328Y-28486577D01*
X13781372Y-28463236D01*
X13810391Y-28444120D01*
X13841900Y-28427005D01*
X13875945Y-28411963D01*
X13911888Y-28399282D01*
X13949539Y-28388994D01*
X13988899Y-28381098D01*
X14025785Y-28376037D01*
X14068392Y-28372688D01*
X14171200Y-28371718D01*
X14236089Y-28374244D01*
X14300581Y-28382509D01*
X14360198Y-28396524D01*
X14411662Y-28414886D01*
X14464010Y-28440842D01*
X14507424Y-28469990D01*
X14527022Y-28486298D01*
X14547388Y-28506027D01*
X14579201Y-28544715D01*
X14718200Y-28368714D01*
X14800201Y-28457713D01*
G37*
G36*
X14404195Y-27673716D02*
G01*
X14633195Y-27673714D01*
X14633196Y-27799714D01*
X14404196Y-27799716D01*
X14404199Y-28249716D01*
X14330199Y-28249717D01*
X13646196Y-27807722D01*
X13646196Y-27799721D01*
X13646196Y-27799720D01*
X13817196Y-27799720D01*
X13844196Y-27814720D01*
X14301198Y-28107717D01*
X14301196Y-27799717D01*
X13817196Y-27799720D01*
X13646196Y-27799720D01*
X13646195Y-27673722D01*
X14301195Y-27673717D01*
X14301194Y-27536717D01*
X14404194Y-27536716D01*
X14404195Y-27673716D01*
G37*
D13*
X18167694Y-27628688D02*
X17237694Y-27628695D01*
X15007694Y-27628712D02*
X15937694Y-27628705D01*
D14*
X14837712Y-30088713D02*
X14837688Y-26688713D01*
X14837688Y-26688713D02*
X18337688Y-26688687D01*
X18337688Y-26688687D02*
X18337712Y-30088687D01*
X18337712Y-30088687D02*
X14837712Y-30088713D01*
D13*
X15007694Y-27628712D02*
X15007710Y-29788712D01*
X18167694Y-27628688D02*
X18167705Y-29088688D01*
D10*
%TO.C,R3*%
G36*
X18003206Y-43601083D02*
G01*
X17167206Y-43601089D01*
X17260208Y-43854088D01*
X17146208Y-43854089D01*
X17011205Y-43494090D01*
X17011205Y-43475090D01*
X18003205Y-43475083D01*
X18003206Y-43601083D01*
G37*
G36*
X18003199Y-42634083D02*
G01*
X17663201Y-42889085D01*
X17745201Y-42968085D01*
X18003201Y-42968083D01*
X18003202Y-43093083D01*
X16961202Y-43093090D01*
X16961201Y-42968090D01*
X17591201Y-42968086D01*
X17511201Y-42901086D01*
X17269199Y-42672088D01*
X17269198Y-42520088D01*
X17576200Y-42805086D01*
X18003198Y-42486083D01*
X18003199Y-42634083D01*
G37*
G36*
X17548198Y-41654297D02*
G01*
X17608245Y-41661504D01*
X17667659Y-41675197D01*
X17700394Y-41685607D01*
X17736059Y-41699210D01*
X17767065Y-41713116D01*
X17796411Y-41728584D01*
X17824096Y-41745615D01*
X17850122Y-41764209D01*
X17874487Y-41784365D01*
X17897193Y-41806083D01*
X17897192Y-41657083D01*
X18003192Y-41657083D01*
X18003194Y-41985083D01*
X17893194Y-41985083D01*
X17885664Y-41956998D01*
X17874326Y-41930865D01*
X17859180Y-41906685D01*
X17840224Y-41884459D01*
X17817461Y-41864186D01*
X17790888Y-41845865D01*
X17760469Y-41829774D01*
X17726880Y-41816210D01*
X17690313Y-41805087D01*
X17654855Y-41797164D01*
X17612629Y-41790680D01*
X17572078Y-41786931D01*
X17524192Y-41785086D01*
X17418636Y-41785232D01*
X17381410Y-41787037D01*
X17346496Y-41790904D01*
X17313894Y-41796834D01*
X17283605Y-41804827D01*
X17255629Y-41814882D01*
X17229965Y-41826999D01*
X17206613Y-41841179D01*
X17185503Y-41857382D01*
X17166800Y-41875194D01*
X17150722Y-41894507D01*
X17137269Y-41915319D01*
X17126441Y-41937632D01*
X17118238Y-41961445D01*
X17112660Y-41986757D01*
X17109707Y-42013570D01*
X17109526Y-42045269D01*
X17112183Y-42072456D01*
X17117496Y-42098081D01*
X17125464Y-42122144D01*
X17136090Y-42144644D01*
X17149371Y-42165581D01*
X17165309Y-42184956D01*
X17183903Y-42202768D01*
X17205094Y-42218960D01*
X17228532Y-42233178D01*
X17254157Y-42245365D01*
X17278373Y-42254363D01*
X17308100Y-42262742D01*
X17335905Y-42268407D01*
X17369733Y-42272977D01*
X17424577Y-42276023D01*
X17541035Y-42275620D01*
X17602007Y-42271414D01*
X17657946Y-42262835D01*
X17705114Y-42251034D01*
X17751372Y-42234044D01*
X17777301Y-42221417D01*
X17803468Y-42205399D01*
X17826432Y-42187561D01*
X17846191Y-42167904D01*
X17862748Y-42146428D01*
X17876100Y-42123132D01*
X17886249Y-42098018D01*
X17893195Y-42071083D01*
X18003195Y-42071083D01*
X18003197Y-42405083D01*
X17897197Y-42405083D01*
X17897196Y-42255083D01*
X17869751Y-42280994D01*
X17839915Y-42304724D01*
X17807689Y-42326275D01*
X17776048Y-42344116D01*
X17739239Y-42361489D01*
X17703644Y-42375233D01*
X17664222Y-42387421D01*
X17624379Y-42396796D01*
X17580739Y-42403779D01*
X17540016Y-42407295D01*
X17406958Y-42407525D01*
X17369165Y-42404771D01*
X17332690Y-42399723D01*
X17294090Y-42391518D01*
X17260384Y-42381651D01*
X17209197Y-42361088D01*
X17159778Y-42332908D01*
X17119067Y-42301486D01*
X17098638Y-42281724D01*
X17081974Y-42262896D01*
X17052873Y-42221631D01*
X17040639Y-42199365D01*
X17028892Y-42173495D01*
X17019281Y-42146754D01*
X17012531Y-42122254D01*
X17004093Y-42071192D01*
X17002194Y-42031090D01*
X17004057Y-41991363D01*
X17009647Y-41953184D01*
X17018963Y-41916551D01*
X17032006Y-41881465D01*
X17048775Y-41847926D01*
X17069115Y-41816183D01*
X17092517Y-41787050D01*
X17118942Y-41760589D01*
X17148391Y-41736800D01*
X17180864Y-41715682D01*
X17216293Y-41697268D01*
X17253817Y-41681963D01*
X17293168Y-41669893D01*
X17334348Y-41661056D01*
X17373702Y-41655798D01*
X17422191Y-41653087D01*
X17548198Y-41654297D01*
G37*
G36*
X14363201Y-42892587D02*
G01*
X13964202Y-43106590D01*
X13964204Y-43338590D01*
X14363204Y-43338587D01*
X14363205Y-43469587D01*
X13376205Y-43469595D01*
X13376268Y-43338594D01*
X13483204Y-43338594D01*
X13857204Y-43338591D01*
X13857190Y-43135570D01*
X13854456Y-43095320D01*
X13848303Y-43063867D01*
X13838635Y-43035226D01*
X13826684Y-43011443D01*
X13810277Y-42988193D01*
X13785486Y-42963787D01*
X13756943Y-42945627D01*
X13724665Y-42933729D01*
X13691169Y-42928274D01*
X13648176Y-42928661D01*
X13610248Y-42935187D01*
X13577044Y-42947645D01*
X13561266Y-42956716D01*
X13546833Y-42967474D01*
X13526268Y-42988656D01*
X13509628Y-43014199D01*
X13497031Y-43043703D01*
X13487987Y-43079906D01*
X13484650Y-43105606D01*
X13483250Y-43133203D01*
X13483204Y-43338594D01*
X13376268Y-43338594D01*
X13376369Y-43127110D01*
X13379839Y-43073265D01*
X13386889Y-43028313D01*
X13395201Y-42995095D01*
X13404423Y-42968028D01*
X13417188Y-42939379D01*
X13430306Y-42916311D01*
X13447525Y-42892233D01*
X13466887Y-42870510D01*
X13488410Y-42851525D01*
X13509063Y-42837221D01*
X13534747Y-42823510D01*
X13562649Y-42812611D01*
X13596691Y-42803712D01*
X13629308Y-42798790D01*
X13668655Y-42796614D01*
X13701364Y-42797789D01*
X13733614Y-42802382D01*
X13766647Y-42811246D01*
X13795382Y-42823018D01*
X13820239Y-42836835D01*
X13845830Y-42855309D01*
X13869244Y-42876801D01*
X13888546Y-42898911D01*
X13907243Y-42925659D01*
X13923480Y-42955149D01*
X13936201Y-42984591D01*
X14355200Y-42752587D01*
X14363200Y-42752587D01*
X14363201Y-42892587D01*
G37*
G36*
X14132288Y-42041159D02*
G01*
X14165948Y-42047085D01*
X14197433Y-42056452D01*
X14226742Y-42069259D01*
X14253877Y-42085508D01*
X14278835Y-42105197D01*
X14301613Y-42128319D01*
X14321666Y-42154045D01*
X14338633Y-42181827D01*
X14352516Y-42211666D01*
X14362266Y-42239916D01*
X14370322Y-42273639D01*
X14374892Y-42305342D01*
X14377120Y-42342951D01*
X14376288Y-42381371D01*
X14372447Y-42417837D01*
X14366510Y-42448525D01*
X14358198Y-42477587D01*
X14346007Y-42508340D01*
X14332648Y-42533950D01*
X14316914Y-42557934D01*
X14296464Y-42582940D01*
X14276589Y-42602652D01*
X14255214Y-42619644D01*
X14229374Y-42635510D01*
X14201636Y-42647936D01*
X14168589Y-42657707D01*
X14136843Y-42662869D01*
X14103199Y-42664589D01*
X14103198Y-42538589D01*
X14133565Y-42536485D01*
X14163315Y-42529512D01*
X14190003Y-42517658D01*
X14213627Y-42500924D01*
X14235597Y-42477727D01*
X14251983Y-42452393D01*
X14263870Y-42423805D01*
X14271259Y-42391963D01*
X14274151Y-42356867D01*
X14272544Y-42318975D01*
X14267025Y-42287056D01*
X14256743Y-42256649D01*
X14243168Y-42232100D01*
X14225686Y-42211100D01*
X14202443Y-42192725D01*
X14177348Y-42179776D01*
X14153470Y-42171913D01*
X14127171Y-42166886D01*
X14095718Y-42164636D01*
X14066799Y-42165638D01*
X14042658Y-42169261D01*
X14018359Y-42176235D01*
X13996424Y-42186341D01*
X13978533Y-42198246D01*
X13959643Y-42215947D01*
X13942528Y-42239083D01*
X13930024Y-42263809D01*
X13920049Y-42294246D01*
X13914509Y-42322966D01*
X13911780Y-42351433D01*
X13911197Y-42464591D01*
X13808197Y-42464591D01*
X13808004Y-42361333D01*
X13803637Y-42320185D01*
X13798050Y-42296943D01*
X13789368Y-42273576D01*
X13778027Y-42252513D01*
X13765409Y-42235365D01*
X13747907Y-42217257D01*
X13729946Y-42203698D01*
X13708195Y-42192342D01*
X13686281Y-42185083D01*
X13660219Y-42180601D01*
X13633800Y-42179635D01*
X13603214Y-42181663D01*
X13575687Y-42186731D01*
X13547438Y-42196488D01*
X13523351Y-42210384D01*
X13503428Y-42228419D01*
X13487668Y-42250593D01*
X13476071Y-42276906D01*
X13467915Y-42312047D01*
X13465239Y-42347230D01*
X13467136Y-42384139D01*
X13474193Y-42417153D01*
X13485439Y-42444694D01*
X13502479Y-42470699D01*
X13524182Y-42493078D01*
X13547486Y-42509491D01*
X13573756Y-42521214D01*
X13602994Y-42528248D01*
X13635198Y-42530593D01*
X13635199Y-42655593D01*
X13602822Y-42653912D01*
X13575404Y-42649596D01*
X13546090Y-42641565D01*
X13521395Y-42631604D01*
X13495144Y-42617223D01*
X13473171Y-42601618D01*
X13449983Y-42580887D01*
X13428487Y-42556876D01*
X13407920Y-42527755D01*
X13392666Y-42499626D01*
X13380498Y-42469677D01*
X13371414Y-42437909D01*
X13365415Y-42404322D01*
X13362368Y-42364869D01*
X13363082Y-42322699D01*
X13366821Y-42286407D01*
X13373487Y-42252528D01*
X13383080Y-42221060D01*
X13395600Y-42192006D01*
X13411047Y-42165364D01*
X13429420Y-42141135D01*
X13450571Y-42119297D01*
X13474013Y-42100488D01*
X13499710Y-42084844D01*
X13524445Y-42073594D01*
X13547548Y-42065800D01*
X13575622Y-42059238D01*
X13601649Y-42055546D01*
X13633063Y-42053671D01*
X13659377Y-42054423D01*
X13683312Y-42058114D01*
X13706896Y-42064759D01*
X13732049Y-42075289D01*
X13754901Y-42088086D01*
X13777351Y-42103730D01*
X13797976Y-42121590D01*
X13814906Y-42139814D01*
X13831219Y-42161716D01*
X13845281Y-42185727D01*
X13856196Y-42209591D01*
X13873510Y-42166472D01*
X13896203Y-42129364D01*
X13909566Y-42113065D01*
X13924275Y-42098268D01*
X13940328Y-42084975D01*
X13959584Y-42071824D01*
X13978001Y-42061837D01*
X13997447Y-42053630D01*
X14036983Y-42042984D01*
X14082845Y-42038633D01*
X14132288Y-42041159D01*
G37*
D13*
X14727705Y-43538207D02*
X14727695Y-42084007D01*
X16547705Y-43538193D02*
X16547695Y-42083993D01*
D10*
%TO.C,Q5*%
G36*
X14800200Y-38368073D02*
G01*
X14634202Y-38576074D01*
X14640486Y-38604032D01*
X14644714Y-38632781D01*
X14646885Y-38662321D01*
X14646976Y-38693594D01*
X14645164Y-38722000D01*
X14640959Y-38752949D01*
X14635295Y-38779562D01*
X14626756Y-38808493D01*
X14615924Y-38836357D01*
X14604370Y-38860228D01*
X14591003Y-38883256D01*
X14574189Y-38907950D01*
X14557642Y-38928575D01*
X14537197Y-38950284D01*
X14496064Y-38984972D01*
X14470235Y-39002286D01*
X14439264Y-39019669D01*
X14409435Y-39033589D01*
X14378203Y-39045606D01*
X14345627Y-39055686D01*
X14311706Y-39063827D01*
X14276439Y-39070030D01*
X14239829Y-39074295D01*
X14188922Y-39076967D01*
X14104745Y-39077066D01*
X14035636Y-39073621D01*
X13994601Y-39068358D01*
X13955226Y-39060702D01*
X13921207Y-39051766D01*
X13884987Y-39039564D01*
X13850443Y-39024916D01*
X13815028Y-39006117D01*
X13782627Y-38984956D01*
X13753239Y-38961430D01*
X13726864Y-38935542D01*
X13703502Y-38907290D01*
X13683181Y-38876605D01*
X13666202Y-38843997D01*
X13651589Y-38806673D01*
X13641776Y-38770853D01*
X13635389Y-38733497D01*
X13632429Y-38694605D01*
X13632779Y-38672077D01*
X13744295Y-38672077D01*
X13746062Y-38713646D01*
X13753383Y-38751878D01*
X13766258Y-38787037D01*
X13784686Y-38819124D01*
X13803895Y-38843091D01*
X13826821Y-38865002D01*
X13856471Y-38886786D01*
X13886277Y-38903571D01*
X13918970Y-38917626D01*
X13954550Y-38928953D01*
X13993018Y-38937551D01*
X14039146Y-38943903D01*
X14094004Y-38946999D01*
X14186982Y-38946922D01*
X14232388Y-38944581D01*
X14274907Y-38939433D01*
X14318765Y-38930419D01*
X14362891Y-38916499D01*
X14399263Y-38900205D01*
X14432070Y-38880444D01*
X14452918Y-38864646D01*
X14468996Y-38850045D01*
X14485577Y-38831787D01*
X14497922Y-38815091D01*
X14510148Y-38794390D01*
X14518762Y-38775599D01*
X14525652Y-38755841D01*
X14531514Y-38731568D01*
X14535031Y-38705980D01*
X14536203Y-38679075D01*
X14534765Y-38648466D01*
X14531149Y-38623144D01*
X14525331Y-38599185D01*
X14517312Y-38576591D01*
X14507092Y-38555360D01*
X14494671Y-38535494D01*
X14468257Y-38504609D01*
X14452624Y-38490670D01*
X14432393Y-38475709D01*
X14393264Y-38453701D01*
X14348580Y-38436334D01*
X14298341Y-38423608D01*
X14242548Y-38415523D01*
X14186525Y-38412187D01*
X14107201Y-38412078D01*
X14054779Y-38413788D01*
X14006263Y-38418915D01*
X13961654Y-38427460D01*
X13917095Y-38440808D01*
X13880689Y-38456531D01*
X13848189Y-38475671D01*
X13816936Y-38500268D01*
X13793279Y-38525639D01*
X13772614Y-38556931D01*
X13757561Y-38591768D01*
X13748122Y-38630150D01*
X13744295Y-38672077D01*
X13632779Y-38672077D01*
X13633109Y-38650769D01*
X13637314Y-38611893D01*
X13645810Y-38571370D01*
X13657180Y-38535953D01*
X13670490Y-38505191D01*
X13686633Y-38475796D01*
X13707241Y-38445579D01*
X13728539Y-38420257D01*
X13752328Y-38396937D01*
X13781372Y-38373596D01*
X13810391Y-38354480D01*
X13841899Y-38337365D01*
X13875945Y-38322323D01*
X13911887Y-38309642D01*
X13949539Y-38299354D01*
X13988899Y-38291458D01*
X14025785Y-38286397D01*
X14068392Y-38283047D01*
X14171200Y-38282078D01*
X14236089Y-38284604D01*
X14300581Y-38292869D01*
X14360198Y-38306884D01*
X14411662Y-38325246D01*
X14464010Y-38351202D01*
X14507424Y-38380350D01*
X14527022Y-38396658D01*
X14547388Y-38416387D01*
X14579201Y-38455075D01*
X14718200Y-38279074D01*
X14800200Y-38368073D01*
G37*
G36*
X14364419Y-37473078D02*
G01*
X14399115Y-37477562D01*
X14427807Y-37483588D01*
X14458694Y-37492877D01*
X14484053Y-37503107D01*
X14511132Y-37517200D01*
X14533159Y-37531634D01*
X14556429Y-37550532D01*
X14574921Y-37569209D01*
X14591314Y-37589475D01*
X14605601Y-37611297D01*
X14617783Y-37634674D01*
X14629127Y-37663295D01*
X14637721Y-37693948D01*
X14642985Y-37722435D01*
X14646143Y-37752477D01*
X14647178Y-37788156D01*
X14645753Y-37819949D01*
X14642046Y-37850211D01*
X14636058Y-37878941D01*
X14627789Y-37906141D01*
X14617238Y-37931809D01*
X14604406Y-37955945D01*
X14589293Y-37978551D01*
X14571903Y-37999651D01*
X14552579Y-38019015D01*
X14531536Y-38036159D01*
X14511714Y-38049341D01*
X14487448Y-38062325D01*
X14461464Y-38073091D01*
X14433761Y-38081638D01*
X14404339Y-38087967D01*
X14373198Y-38092076D01*
X14373198Y-37973076D01*
X14417688Y-37963478D01*
X14455533Y-37948185D01*
X14471964Y-37938403D01*
X14486734Y-37927196D01*
X14499843Y-37914567D01*
X14510089Y-37901986D01*
X14520009Y-37886638D01*
X14529038Y-37868146D01*
X14539997Y-37831048D01*
X14542926Y-37810659D01*
X14544186Y-37786567D01*
X14543258Y-37762669D01*
X14540446Y-37742450D01*
X14530118Y-37707741D01*
X14521915Y-37690936D01*
X14511837Y-37675319D01*
X14499884Y-37660889D01*
X14486055Y-37647647D01*
X14470738Y-37635736D01*
X14454012Y-37625385D01*
X14416246Y-37609369D01*
X14375619Y-37600031D01*
X14326712Y-37596125D01*
X14278748Y-37598661D01*
X14248802Y-37604317D01*
X14221160Y-37613163D01*
X14195822Y-37625200D01*
X14172788Y-37640427D01*
X14150473Y-37660519D01*
X14133554Y-37681306D01*
X14120180Y-37704219D01*
X14110351Y-37729259D01*
X14103672Y-37759001D01*
X14101255Y-37788488D01*
X14102682Y-37825947D01*
X14108087Y-37859129D01*
X14115971Y-37884777D01*
X14126826Y-37907536D01*
X14137197Y-37923078D01*
X14164197Y-37956078D01*
X14138198Y-38056078D01*
X13646198Y-38006082D01*
X13646194Y-37500082D01*
X13762194Y-37500081D01*
X13762197Y-37900081D01*
X14031197Y-37929079D01*
X14017686Y-37903738D01*
X14006715Y-37877216D01*
X13998285Y-37849512D01*
X13992396Y-37820626D01*
X13989047Y-37790559D01*
X13988283Y-37756695D01*
X13990369Y-37724234D01*
X13994475Y-37697241D01*
X14000711Y-37671563D01*
X14010445Y-37643829D01*
X14021244Y-37620971D01*
X14034172Y-37599429D01*
X14051555Y-37576421D01*
X14069046Y-37557699D01*
X14088565Y-37540512D01*
X14109649Y-37525256D01*
X14135590Y-37510134D01*
X14163500Y-37497482D01*
X14189537Y-37488436D01*
X14221138Y-37480412D01*
X14254709Y-37474857D01*
X14290248Y-37471771D01*
X14327693Y-37471157D01*
X14364419Y-37473078D01*
G37*
D13*
X18167694Y-37551088D02*
X17237694Y-37551095D01*
X15007694Y-37551112D02*
X15937694Y-37551105D01*
D14*
X14837712Y-40011113D02*
X14837688Y-36611113D01*
X14837688Y-36611113D02*
X18337688Y-36611087D01*
X18337688Y-36611087D02*
X18337712Y-40011087D01*
X18337712Y-40011087D02*
X14837712Y-40011113D01*
D13*
X15007694Y-37551112D02*
X15007710Y-39711112D01*
X18167694Y-37551088D02*
X18167705Y-39011088D01*
D10*
%TO.C,CN2*%
G36*
X13821731Y-17399078D02*
G01*
X13869064Y-17412355D01*
X13912202Y-17430359D01*
X13954478Y-17455390D01*
X13988845Y-17483276D01*
X14021618Y-17518901D01*
X14048830Y-17559026D01*
X14068461Y-17599760D01*
X14084083Y-17648510D01*
X14094182Y-17706400D01*
X14097175Y-17769977D01*
X14093484Y-17822643D01*
X14083641Y-17871940D01*
X14076412Y-17895325D01*
X14065707Y-17922276D01*
X14042944Y-17964497D01*
X14014028Y-18003350D01*
X13982744Y-18035437D01*
X13947015Y-18064291D01*
X13912406Y-18086440D01*
X13870258Y-18107435D01*
X13824709Y-18124277D01*
X13775758Y-18136967D01*
X13729391Y-18144760D01*
X13674016Y-18149606D01*
X13502311Y-18149561D01*
X13449803Y-18144740D01*
X13396209Y-18135027D01*
X13342185Y-18119415D01*
X13291756Y-18098429D01*
X13246345Y-18072607D01*
X13206208Y-18042282D01*
X13169208Y-18004970D01*
X13138208Y-17962532D01*
X13113707Y-17915720D01*
X13097096Y-17868541D01*
X13086158Y-17814705D01*
X13082220Y-17757244D01*
X13085299Y-17696837D01*
X13089961Y-17665778D01*
X13095633Y-17640337D01*
X13111617Y-17592723D01*
X13131705Y-17552907D01*
X13159548Y-17513649D01*
X13193251Y-17479016D01*
X13231747Y-17449871D01*
X13274954Y-17426281D01*
X13322872Y-17408246D01*
X13375500Y-17395765D01*
X13413203Y-17390530D01*
X13413204Y-17521530D01*
X13367949Y-17530087D01*
X13328057Y-17541945D01*
X13293529Y-17557103D01*
X13262344Y-17577119D01*
X13237353Y-17600883D01*
X13219018Y-17626407D01*
X13204163Y-17658139D01*
X13194912Y-17691547D01*
X13190254Y-17725754D01*
X13189408Y-17765132D01*
X13192441Y-17798508D01*
X13199112Y-17829749D01*
X13209422Y-17858854D01*
X13223370Y-17885823D01*
X13243136Y-17913284D01*
X13264766Y-17935744D01*
X13296209Y-17960041D01*
X13332520Y-17980156D01*
X13373381Y-17996135D01*
X13418791Y-18007978D01*
X13464021Y-18015155D01*
X13507942Y-18018692D01*
X13663961Y-18019120D01*
X13706487Y-18016322D01*
X13750677Y-18010106D01*
X13791643Y-18000618D01*
X13825758Y-17989282D01*
X13860602Y-17973579D01*
X13889206Y-17956649D01*
X13917473Y-17934933D01*
X13938973Y-17913123D01*
X13956716Y-17889177D01*
X13970701Y-17863095D01*
X13980929Y-17834878D01*
X13987400Y-17804525D01*
X13990113Y-17772036D01*
X13989010Y-17731997D01*
X13984416Y-17696184D01*
X13976376Y-17663887D01*
X13964892Y-17635106D01*
X13949962Y-17609841D01*
X13931376Y-17587994D01*
X13910023Y-17570466D01*
X13881810Y-17553972D01*
X13851439Y-17541261D01*
X13813388Y-17530023D01*
X13770204Y-17521528D01*
X13770203Y-17390528D01*
X13821731Y-17399078D01*
G37*
G36*
X14083198Y-16584525D02*
G01*
X13322201Y-17082531D01*
X14083201Y-17082525D01*
X14083202Y-17212525D01*
X13096202Y-17212533D01*
X13096201Y-17082533D01*
X13860198Y-16583527D01*
X13096198Y-16583533D01*
X13096197Y-16454533D01*
X14083197Y-16454525D01*
X14083198Y-16584525D01*
G37*
G36*
X14083195Y-16255525D02*
G01*
X13993195Y-16255526D01*
X13613193Y-15913529D01*
X13553192Y-15863139D01*
X13508075Y-15829891D01*
X13469813Y-15806807D01*
X13432129Y-15791468D01*
X13393500Y-15782745D01*
X13351676Y-15780710D01*
X13311563Y-15785967D01*
X13293167Y-15791324D01*
X13275879Y-15798500D01*
X13259699Y-15807496D01*
X13244626Y-15818311D01*
X13230614Y-15831006D01*
X13218200Y-15845247D01*
X13208825Y-15858934D01*
X13200146Y-15875491D01*
X13193444Y-15893273D01*
X13189148Y-15910109D01*
X13185205Y-15949102D01*
X13188506Y-15995907D01*
X13198443Y-16035032D01*
X13205897Y-16052626D01*
X13215006Y-16068907D01*
X13225772Y-16083875D01*
X13238194Y-16097532D01*
X13252335Y-16109485D01*
X13267757Y-16119844D01*
X13302444Y-16135781D01*
X13342257Y-16145343D01*
X13387194Y-16148530D01*
X13387195Y-16274530D01*
X13345677Y-16272382D01*
X13302995Y-16265057D01*
X13266911Y-16253885D01*
X13230208Y-16236633D01*
X13199558Y-16216438D01*
X13168833Y-16189261D01*
X13141995Y-16157592D01*
X13121897Y-16125771D01*
X13105901Y-16091069D01*
X13094006Y-16053486D01*
X13086213Y-16013022D01*
X13082378Y-15965184D01*
X13083318Y-15917939D01*
X13088538Y-15874707D01*
X13098012Y-15834902D01*
X13111741Y-15798523D01*
X13127912Y-15768425D01*
X13149762Y-15738589D01*
X13175410Y-15712614D01*
X13203976Y-15691344D01*
X13232457Y-15676110D01*
X13266550Y-15663863D01*
X13300056Y-15656832D01*
X13339676Y-15653609D01*
X13365538Y-15654257D01*
X13393895Y-15658071D01*
X13423253Y-15665155D01*
X13453614Y-15675509D01*
X13484976Y-15689131D01*
X13517340Y-15706024D01*
X13579278Y-15745485D01*
X13626438Y-15781086D01*
X13675380Y-15822500D01*
X13981194Y-16104526D01*
X13981190Y-15608526D01*
X14083190Y-15608525D01*
X14083195Y-16255525D01*
G37*
D15*
X19887745Y-23089983D02*
X19895510Y-23091005D01*
X19895510Y-23091005D02*
X19902745Y-23094002D01*
X19902745Y-23094002D02*
X19908959Y-23098769D01*
X19908959Y-23098769D02*
X19913726Y-23104983D01*
X19913726Y-23104983D02*
X19916723Y-23112218D01*
X19916723Y-23112218D02*
X19917746Y-23119983D01*
X19917746Y-23119983D02*
X19916723Y-23127747D01*
X19916723Y-23127747D02*
X19913726Y-23134983D01*
X19913726Y-23134983D02*
X19908959Y-23141196D01*
X19908959Y-23141196D02*
X19902746Y-23145963D01*
X19902746Y-23145963D02*
X19895510Y-23148960D01*
X19895510Y-23148960D02*
X19887746Y-23149983D01*
X19887746Y-23149983D02*
X19879981Y-23148961D01*
X19879981Y-23148961D02*
X19872746Y-23145964D01*
X19872746Y-23145964D02*
X19866533Y-23141196D01*
X19866533Y-23141196D02*
X19861765Y-23134983D01*
X19861765Y-23134983D02*
X19858768Y-23127748D01*
X19858768Y-23127748D02*
X19857746Y-23119983D01*
X19857746Y-23119983D02*
X19858768Y-23112218D01*
X19858768Y-23112218D02*
X19861765Y-23104983D01*
X19861765Y-23104983D02*
X19866532Y-23098770D01*
X19866532Y-23098770D02*
X19872745Y-23094002D01*
X19872745Y-23094002D02*
X19879981Y-23091005D01*
X19879981Y-23091005D02*
X19887745Y-23089983D01*
D16*
X19697746Y-23139984D02*
X19947746Y-23139982D01*
X19947746Y-23139982D02*
X19947736Y-21869982D01*
X14107654Y-10700025D02*
X18557654Y-10699993D01*
X19947665Y-12219982D02*
X19947654Y-10699982D01*
X19947654Y-10699982D02*
X19697654Y-10699984D01*
X19947720Y-19709982D02*
X19947681Y-14379982D01*
X14107654Y-10700025D02*
X14107746Y-23140025D01*
X14107746Y-23140025D02*
X18557746Y-23139993D01*
D10*
%TO.C,CN1*%
G36*
X49281528Y-17301542D02*
G01*
X49328861Y-17314819D01*
X49371999Y-17332823D01*
X49414275Y-17357854D01*
X49448642Y-17385741D01*
X49481415Y-17421366D01*
X49508626Y-17461491D01*
X49528257Y-17502225D01*
X49543879Y-17550975D01*
X49553978Y-17608866D01*
X49556971Y-17672443D01*
X49553279Y-17725109D01*
X49543436Y-17774406D01*
X49536207Y-17797791D01*
X49525502Y-17824741D01*
X49502738Y-17866962D01*
X49473822Y-17905815D01*
X49442538Y-17937902D01*
X49406809Y-17966756D01*
X49372199Y-17988904D01*
X49330051Y-18009899D01*
X49284502Y-18026741D01*
X49235552Y-18039431D01*
X49189184Y-18047224D01*
X49133809Y-18052069D01*
X48962104Y-18052023D01*
X48909596Y-18047202D01*
X48856002Y-18037488D01*
X48801979Y-18021877D01*
X48751549Y-18000890D01*
X48706139Y-17975068D01*
X48666002Y-17944743D01*
X48629002Y-17907430D01*
X48598002Y-17864993D01*
X48573502Y-17818180D01*
X48556890Y-17771001D01*
X48545953Y-17717165D01*
X48542015Y-17659704D01*
X48545095Y-17599297D01*
X48549757Y-17568238D01*
X48555429Y-17542797D01*
X48571413Y-17495184D01*
X48591501Y-17455368D01*
X48619345Y-17416110D01*
X48653048Y-17381477D01*
X48691544Y-17352332D01*
X48734751Y-17328742D01*
X48782669Y-17310707D01*
X48835298Y-17298227D01*
X48873001Y-17292992D01*
X48873001Y-17423992D01*
X48827745Y-17432549D01*
X48787854Y-17444406D01*
X48753326Y-17459565D01*
X48722140Y-17479580D01*
X48697149Y-17503344D01*
X48678814Y-17528867D01*
X48663959Y-17560600D01*
X48654708Y-17594008D01*
X48650049Y-17628215D01*
X48649204Y-17667593D01*
X48652236Y-17700969D01*
X48658907Y-17732210D01*
X48669217Y-17761315D01*
X48683165Y-17788284D01*
X48702930Y-17815745D01*
X48724560Y-17838205D01*
X48756003Y-17862503D01*
X48792314Y-17882617D01*
X48833175Y-17898596D01*
X48878585Y-17910439D01*
X48923814Y-17917617D01*
X48967736Y-17921155D01*
X49123755Y-17921583D01*
X49166281Y-17918785D01*
X49210471Y-17912570D01*
X49251438Y-17903082D01*
X49285552Y-17891746D01*
X49320396Y-17876043D01*
X49349000Y-17859113D01*
X49377267Y-17837397D01*
X49398768Y-17815587D01*
X49416511Y-17791641D01*
X49430496Y-17765560D01*
X49440724Y-17737343D01*
X49447195Y-17706989D01*
X49449909Y-17674501D01*
X49448805Y-17634462D01*
X49444211Y-17598649D01*
X49436172Y-17566352D01*
X49424688Y-17537571D01*
X49409758Y-17512305D01*
X49391172Y-17490459D01*
X49369819Y-17472930D01*
X49341606Y-17456436D01*
X49311235Y-17443726D01*
X49273185Y-17432487D01*
X49230001Y-17423991D01*
X49230001Y-17292991D01*
X49281528Y-17301542D01*
G37*
G36*
X49542999Y-16486991D02*
G01*
X48782000Y-16984992D01*
X49543000Y-16984991D01*
X49543000Y-17114991D01*
X48556000Y-17114993D01*
X48556000Y-16984993D01*
X49319999Y-16485991D01*
X48555999Y-16485993D01*
X48555999Y-16356993D01*
X49542999Y-16356991D01*
X49542999Y-16486991D01*
G37*
G36*
X49542998Y-15871991D02*
G01*
X48706998Y-15871992D01*
X48799998Y-16124992D01*
X48685998Y-16124992D01*
X48550998Y-15764993D01*
X48550998Y-15745993D01*
X49542998Y-15745991D01*
X49542998Y-15871991D01*
G37*
D15*
X48527508Y-20699993D02*
X48519743Y-20698971D01*
X48519743Y-20698971D02*
X48512508Y-20695974D01*
X48512508Y-20695974D02*
X48506294Y-20691206D01*
X48506294Y-20691206D02*
X48501527Y-20684993D01*
X48501527Y-20684993D02*
X48498530Y-20677757D01*
X48498530Y-20677757D02*
X48497508Y-20669993D01*
X48497508Y-20669993D02*
X48498530Y-20662228D01*
X48498530Y-20662228D02*
X48501527Y-20654993D01*
X48501527Y-20654993D02*
X48506294Y-20648780D01*
X48506294Y-20648780D02*
X48512508Y-20644012D01*
X48512508Y-20644012D02*
X48519743Y-20641015D01*
X48519743Y-20641015D02*
X48527508Y-20639993D01*
X48527508Y-20639993D02*
X48535272Y-20641015D01*
X48535272Y-20641015D02*
X48542508Y-20644012D01*
X48542508Y-20644012D02*
X48548721Y-20648780D01*
X48548721Y-20648780D02*
X48553488Y-20654993D01*
X48553488Y-20654993D02*
X48556485Y-20662228D01*
X48556485Y-20662228D02*
X48557508Y-20669993D01*
X48557508Y-20669993D02*
X48556485Y-20677757D01*
X48556485Y-20677757D02*
X48553488Y-20684993D01*
X48553488Y-20684993D02*
X48548721Y-20691206D01*
X48548721Y-20691206D02*
X48542508Y-20695974D01*
X48542508Y-20695974D02*
X48535272Y-20698971D01*
X48535272Y-20698971D02*
X48527508Y-20699993D01*
D16*
X42587508Y-20620005D02*
X42837508Y-20620004D01*
X42587492Y-13260005D02*
X42837492Y-13260004D01*
X42587508Y-20620005D02*
X42587505Y-19480005D01*
X42587497Y-15670005D02*
X42587503Y-18210005D01*
X42587492Y-13260005D02*
X42587495Y-14270005D01*
X43977492Y-13260002D02*
X48427492Y-13259993D01*
X48427492Y-13259993D02*
X48427508Y-20619993D01*
X48427508Y-20619993D02*
X43977508Y-20620002D01*
D10*
%TO.C,R2*%
G36*
X18003206Y-33678683D02*
G01*
X17167206Y-33678689D01*
X17260208Y-33931688D01*
X17146208Y-33931689D01*
X17011205Y-33571690D01*
X17011205Y-33552690D01*
X18003205Y-33552683D01*
X18003206Y-33678683D01*
G37*
G36*
X18003199Y-32711683D02*
G01*
X17663201Y-32966685D01*
X17745201Y-33045685D01*
X18003201Y-33045683D01*
X18003202Y-33170683D01*
X16961202Y-33170690D01*
X16961201Y-33045690D01*
X17591201Y-33045686D01*
X17511201Y-32978686D01*
X17269199Y-32749688D01*
X17269198Y-32597688D01*
X17576200Y-32882686D01*
X18003198Y-32563683D01*
X18003199Y-32711683D01*
G37*
G36*
X17548198Y-31731897D02*
G01*
X17608245Y-31739104D01*
X17667659Y-31752797D01*
X17700394Y-31763207D01*
X17736059Y-31776810D01*
X17767065Y-31790716D01*
X17796411Y-31806184D01*
X17824096Y-31823215D01*
X17850122Y-31841809D01*
X17874487Y-31861965D01*
X17897193Y-31883683D01*
X17897192Y-31734683D01*
X18003192Y-31734683D01*
X18003194Y-32062683D01*
X17893194Y-32062683D01*
X17885664Y-32034598D01*
X17874326Y-32008465D01*
X17859180Y-31984285D01*
X17840224Y-31962059D01*
X17817461Y-31941786D01*
X17790888Y-31923465D01*
X17760469Y-31907374D01*
X17726880Y-31893810D01*
X17690313Y-31882687D01*
X17654855Y-31874764D01*
X17612629Y-31868280D01*
X17572078Y-31864531D01*
X17524192Y-31862686D01*
X17418636Y-31862832D01*
X17381410Y-31864637D01*
X17346496Y-31868504D01*
X17313894Y-31874434D01*
X17283605Y-31882427D01*
X17255629Y-31892482D01*
X17229965Y-31904599D01*
X17206613Y-31918779D01*
X17185503Y-31934982D01*
X17166800Y-31952794D01*
X17150722Y-31972107D01*
X17137269Y-31992919D01*
X17126441Y-32015232D01*
X17118238Y-32039045D01*
X17112660Y-32064357D01*
X17109707Y-32091170D01*
X17109526Y-32122869D01*
X17112183Y-32150056D01*
X17117496Y-32175681D01*
X17125464Y-32199744D01*
X17136090Y-32222244D01*
X17149371Y-32243181D01*
X17165309Y-32262556D01*
X17183903Y-32280368D01*
X17205094Y-32296560D01*
X17228532Y-32310778D01*
X17254157Y-32322965D01*
X17278373Y-32331963D01*
X17308100Y-32340342D01*
X17335905Y-32346007D01*
X17369733Y-32350577D01*
X17424577Y-32353623D01*
X17541035Y-32353220D01*
X17602007Y-32349014D01*
X17657946Y-32340435D01*
X17705114Y-32328634D01*
X17751372Y-32311644D01*
X17777301Y-32299017D01*
X17803468Y-32282999D01*
X17826432Y-32265161D01*
X17846191Y-32245504D01*
X17862748Y-32224028D01*
X17876100Y-32200732D01*
X17886249Y-32175618D01*
X17893195Y-32148683D01*
X18003195Y-32148683D01*
X18003197Y-32482683D01*
X17897197Y-32482683D01*
X17897196Y-32332683D01*
X17869751Y-32358594D01*
X17839915Y-32382324D01*
X17807689Y-32403875D01*
X17776048Y-32421716D01*
X17739239Y-32439089D01*
X17703644Y-32452833D01*
X17664222Y-32465021D01*
X17624379Y-32474396D01*
X17580739Y-32481379D01*
X17540016Y-32484895D01*
X17406958Y-32485125D01*
X17369165Y-32482371D01*
X17332690Y-32477323D01*
X17294090Y-32469118D01*
X17260384Y-32459251D01*
X17209197Y-32438688D01*
X17159778Y-32410508D01*
X17119067Y-32379086D01*
X17098638Y-32359324D01*
X17081974Y-32340496D01*
X17052873Y-32299231D01*
X17040639Y-32276965D01*
X17028892Y-32251095D01*
X17019281Y-32224354D01*
X17012531Y-32199854D01*
X17004093Y-32148792D01*
X17002194Y-32108690D01*
X17004057Y-32068963D01*
X17009647Y-32030784D01*
X17018963Y-31994151D01*
X17032006Y-31959065D01*
X17048775Y-31925526D01*
X17069115Y-31893783D01*
X17092517Y-31864650D01*
X17118942Y-31838189D01*
X17148391Y-31814400D01*
X17180864Y-31793282D01*
X17216293Y-31774868D01*
X17253817Y-31759563D01*
X17293168Y-31747493D01*
X17334348Y-31738656D01*
X17373702Y-31733398D01*
X17422191Y-31730687D01*
X17548198Y-31731897D01*
G37*
G36*
X14363201Y-32989709D02*
G01*
X13964202Y-33203712D01*
X13964204Y-33435712D01*
X14363204Y-33435709D01*
X14363205Y-33566709D01*
X13376205Y-33566717D01*
X13376268Y-33435716D01*
X13483204Y-33435716D01*
X13857204Y-33435713D01*
X13857190Y-33232692D01*
X13854456Y-33192442D01*
X13848303Y-33160989D01*
X13838635Y-33132348D01*
X13826684Y-33108565D01*
X13810278Y-33085315D01*
X13785486Y-33060909D01*
X13756943Y-33042749D01*
X13724665Y-33030851D01*
X13691169Y-33025396D01*
X13648176Y-33025782D01*
X13610248Y-33032309D01*
X13577044Y-33044767D01*
X13561266Y-33053838D01*
X13546833Y-33064596D01*
X13526268Y-33085778D01*
X13509628Y-33111321D01*
X13497031Y-33140825D01*
X13487987Y-33177028D01*
X13484650Y-33202728D01*
X13483250Y-33230325D01*
X13483204Y-33435716D01*
X13376268Y-33435716D01*
X13376369Y-33224232D01*
X13379839Y-33170387D01*
X13386889Y-33125435D01*
X13395201Y-33092216D01*
X13404423Y-33065150D01*
X13417188Y-33036501D01*
X13430306Y-33013433D01*
X13447525Y-32989355D01*
X13466887Y-32967632D01*
X13488410Y-32948647D01*
X13509063Y-32934343D01*
X13534747Y-32920632D01*
X13562649Y-32909733D01*
X13596691Y-32900834D01*
X13629308Y-32895912D01*
X13668655Y-32893736D01*
X13701364Y-32894911D01*
X13733614Y-32899504D01*
X13766647Y-32908368D01*
X13795382Y-32920140D01*
X13820239Y-32933957D01*
X13845830Y-32952431D01*
X13869245Y-32973923D01*
X13888546Y-32996033D01*
X13907243Y-33022781D01*
X13923480Y-33052271D01*
X13936201Y-33081712D01*
X14355200Y-32849709D01*
X14363200Y-32849709D01*
X14363201Y-32989709D01*
G37*
G36*
X14363199Y-32743709D02*
G01*
X14273199Y-32743710D01*
X13893196Y-32401713D01*
X13833196Y-32351323D01*
X13788079Y-32318075D01*
X13749817Y-32294991D01*
X13712133Y-32279652D01*
X13673504Y-32270929D01*
X13631680Y-32268894D01*
X13591567Y-32274151D01*
X13573171Y-32279508D01*
X13555883Y-32286684D01*
X13539702Y-32295680D01*
X13524629Y-32306495D01*
X13510618Y-32319190D01*
X13498204Y-32333431D01*
X13488829Y-32347118D01*
X13480150Y-32363675D01*
X13473448Y-32381457D01*
X13469151Y-32398293D01*
X13465209Y-32437286D01*
X13468510Y-32484091D01*
X13478447Y-32523216D01*
X13485901Y-32540810D01*
X13495010Y-32557091D01*
X13505776Y-32572059D01*
X13518198Y-32585716D01*
X13532338Y-32597669D01*
X13547760Y-32608028D01*
X13582448Y-32623965D01*
X13622261Y-32633527D01*
X13667198Y-32636714D01*
X13667199Y-32762714D01*
X13621671Y-32760115D01*
X13582999Y-32753240D01*
X13546915Y-32742069D01*
X13510211Y-32724817D01*
X13479562Y-32704622D01*
X13448836Y-32677445D01*
X13421999Y-32645776D01*
X13401901Y-32613955D01*
X13385905Y-32579253D01*
X13374010Y-32541670D01*
X13366217Y-32501206D01*
X13362381Y-32453368D01*
X13363321Y-32406123D01*
X13368542Y-32362891D01*
X13378016Y-32323086D01*
X13391744Y-32286707D01*
X13409727Y-32253755D01*
X13429765Y-32226773D01*
X13455414Y-32200798D01*
X13483980Y-32179528D01*
X13512461Y-32164294D01*
X13546554Y-32152047D01*
X13583542Y-32144528D01*
X13619680Y-32141793D01*
X13645542Y-32142441D01*
X13673899Y-32146255D01*
X13703257Y-32153339D01*
X13733618Y-32163693D01*
X13764980Y-32177315D01*
X13791881Y-32191165D01*
X13825080Y-32210782D01*
X13859281Y-32233669D01*
X13906442Y-32269270D01*
X13955383Y-32310684D01*
X14261198Y-32592710D01*
X14261194Y-32096710D01*
X14363194Y-32096709D01*
X14363199Y-32743709D01*
G37*
D13*
X14727705Y-33615807D02*
X14727695Y-32161607D01*
X16547705Y-33615793D02*
X16547695Y-32161593D01*
D10*
%TO.C,R1*%
G36*
X32078900Y-30695500D02*
G01*
X31952900Y-30695500D01*
X31952900Y-29859500D01*
X31699900Y-29952500D01*
X31699900Y-29838500D01*
X32059900Y-29703500D01*
X32078900Y-29703500D01*
X32078900Y-30695500D01*
G37*
G36*
X32778381Y-29695123D02*
G01*
X32810912Y-29698086D01*
X32841409Y-29703490D01*
X32869872Y-29711334D01*
X32896301Y-29721619D01*
X32917336Y-29732376D01*
X32939989Y-29747193D01*
X32960608Y-29764451D01*
X32988900Y-29796500D01*
X33002321Y-29816601D01*
X33014459Y-29838652D01*
X33034884Y-29888609D01*
X33050177Y-29946371D01*
X33059001Y-30000468D01*
X33064589Y-30066234D01*
X33065900Y-30111500D01*
X33065900Y-30274500D01*
X33063684Y-30346787D01*
X33057038Y-30412397D01*
X33047150Y-30466250D01*
X33032044Y-30519115D01*
X33014466Y-30561381D01*
X32990900Y-30601500D01*
X32962608Y-30635435D01*
X32932530Y-30660747D01*
X32912491Y-30673403D01*
X32890957Y-30684161D01*
X32867930Y-30693021D01*
X32843409Y-30699981D01*
X32817393Y-30705044D01*
X32789883Y-30708208D01*
X32760879Y-30709474D01*
X32726996Y-30708577D01*
X32677748Y-30702092D01*
X32652928Y-30695939D01*
X32629549Y-30687941D01*
X32607611Y-30678097D01*
X32587115Y-30666408D01*
X32568061Y-30652873D01*
X32550447Y-30637492D01*
X32526730Y-30610960D01*
X32506148Y-30580299D01*
X32488463Y-30545563D01*
X32472198Y-30502188D01*
X32460607Y-30458852D01*
X32451115Y-30405922D01*
X32445620Y-30353985D01*
X32443031Y-30294500D01*
X32442900Y-30291500D01*
X32443729Y-30093500D01*
X32567900Y-30093500D01*
X32567900Y-30294500D01*
X32570838Y-30369250D01*
X32575072Y-30406683D01*
X32581956Y-30444378D01*
X32591136Y-30477972D01*
X32602611Y-30507464D01*
X32616349Y-30532856D01*
X32632160Y-30554380D01*
X32650363Y-30572192D01*
X32670959Y-30586294D01*
X32698832Y-30598317D01*
X32732916Y-30605313D01*
X32770138Y-30606061D01*
X32804416Y-30600805D01*
X32834732Y-30589607D01*
X32859201Y-30573998D01*
X32880295Y-30553326D01*
X32898024Y-30527570D01*
X32911530Y-30499076D01*
X32922495Y-30465738D01*
X32930920Y-30427555D01*
X32936804Y-30384527D01*
X32940900Y-30308500D01*
X32940900Y-30102500D01*
X32939318Y-30045898D01*
X32935088Y-29999326D01*
X32928200Y-29957834D01*
X32918653Y-29921423D01*
X32906447Y-29890094D01*
X32891567Y-29863817D01*
X32873724Y-29842056D01*
X32852809Y-29824608D01*
X32837900Y-29815750D01*
X32821747Y-29808639D01*
X32788447Y-29800066D01*
X32747951Y-29797571D01*
X32709150Y-29802063D01*
X32679853Y-29811473D01*
X32652241Y-29827459D01*
X32628920Y-29849470D01*
X32609867Y-29877424D01*
X32595582Y-29908590D01*
X32584250Y-29945310D01*
X32575871Y-29987586D01*
X32570445Y-30035416D01*
X32567900Y-30093500D01*
X32443729Y-30093500D01*
X32443797Y-30077359D01*
X32448192Y-30016051D01*
X32456248Y-29960162D01*
X32470750Y-29900250D01*
X32488676Y-29852187D01*
X32500322Y-29828734D01*
X32513286Y-29807233D01*
X32540936Y-29772784D01*
X32561150Y-29754125D01*
X32580076Y-29740150D01*
X32604022Y-29726202D01*
X32629978Y-29714789D01*
X32657944Y-29705913D01*
X32683514Y-29700323D01*
X32710561Y-29696596D01*
X32743982Y-29694604D01*
X32778381Y-29695123D01*
G37*
G36*
X33365900Y-30283500D02*
G01*
X33432900Y-30203500D01*
X33661900Y-29961500D01*
X33813900Y-29961500D01*
X33528900Y-30268500D01*
X33847900Y-30695500D01*
X33699900Y-30695500D01*
X33444900Y-30355500D01*
X33365900Y-30437500D01*
X33365900Y-30695500D01*
X33240900Y-30695500D01*
X33240900Y-29653500D01*
X33365900Y-29653500D01*
X33365900Y-30283500D01*
G37*
G36*
X34342627Y-29696363D02*
G01*
X34380806Y-29701953D01*
X34417439Y-29711270D01*
X34452525Y-29724313D01*
X34486064Y-29741082D01*
X34517806Y-29761422D01*
X34546939Y-29784824D01*
X34573400Y-29811250D01*
X34597189Y-29840699D01*
X34618306Y-29873172D01*
X34636720Y-29908602D01*
X34652025Y-29946125D01*
X34663213Y-29982127D01*
X34672318Y-30023155D01*
X34678190Y-30066010D01*
X34680900Y-30114500D01*
X34679689Y-30240507D01*
X34672482Y-30300554D01*
X34658788Y-30359968D01*
X34648378Y-30392702D01*
X34634775Y-30428367D01*
X34620869Y-30459373D01*
X34605400Y-30488719D01*
X34588369Y-30516404D01*
X34569775Y-30542430D01*
X34549619Y-30566795D01*
X34527900Y-30589500D01*
X34676900Y-30589500D01*
X34676900Y-30695500D01*
X34348900Y-30695500D01*
X34348900Y-30585500D01*
X34376986Y-30577971D01*
X34403119Y-30566633D01*
X34427298Y-30551486D01*
X34449525Y-30532531D01*
X34469798Y-30509768D01*
X34488119Y-30483195D01*
X34504211Y-30452776D01*
X34517775Y-30419188D01*
X34528898Y-30382620D01*
X34536821Y-30347163D01*
X34542767Y-30309293D01*
X34547054Y-30264386D01*
X34548900Y-30216500D01*
X34548755Y-30110944D01*
X34546950Y-30073717D01*
X34543083Y-30038803D01*
X34537153Y-30006202D01*
X34529161Y-29975913D01*
X34519107Y-29947936D01*
X34506989Y-29922272D01*
X34492810Y-29898920D01*
X34476607Y-29877810D01*
X34458795Y-29859106D01*
X34439482Y-29843028D01*
X34418670Y-29829575D01*
X34396357Y-29818747D01*
X34372545Y-29810544D01*
X34347232Y-29804966D01*
X34320420Y-29802013D01*
X34288720Y-29801832D01*
X34261533Y-29804488D01*
X34235908Y-29809801D01*
X34211845Y-29817770D01*
X34189345Y-29828395D01*
X34168408Y-29841676D01*
X34149033Y-29857613D01*
X34131220Y-29876207D01*
X34115029Y-29897398D01*
X34100810Y-29920836D01*
X34088623Y-29946461D01*
X34079625Y-29970677D01*
X34071246Y-30000404D01*
X34064898Y-30032318D01*
X34061010Y-30062037D01*
X34057963Y-30116881D01*
X34058366Y-30233339D01*
X34062571Y-30294311D01*
X34070335Y-30346126D01*
X34082951Y-30397418D01*
X34099940Y-30443677D01*
X34112567Y-30469605D01*
X34128586Y-30495772D01*
X34146423Y-30518736D01*
X34166080Y-30538496D01*
X34187556Y-30555052D01*
X34210851Y-30568405D01*
X34235966Y-30578554D01*
X34262900Y-30585500D01*
X34262900Y-30695500D01*
X33928900Y-30695500D01*
X33928900Y-30589500D01*
X34078900Y-30589500D01*
X34055066Y-30564433D01*
X34031154Y-30534796D01*
X34009421Y-30502769D01*
X33989869Y-30468351D01*
X33972495Y-30431542D01*
X33958752Y-30395947D01*
X33946564Y-30356525D01*
X33937189Y-30316682D01*
X33930207Y-30273042D01*
X33926691Y-30232319D01*
X33926462Y-30099260D01*
X33929216Y-30061468D01*
X33934896Y-30021418D01*
X33942469Y-29986394D01*
X33952338Y-29952688D01*
X33972900Y-29901500D01*
X34001081Y-29852081D01*
X34018171Y-29828489D01*
X34034625Y-29809013D01*
X34071093Y-29774278D01*
X34112359Y-29745178D01*
X34137456Y-29731533D01*
X34160495Y-29721197D01*
X34187236Y-29711586D01*
X34211736Y-29704836D01*
X34262798Y-29696398D01*
X34302900Y-29694500D01*
X34342627Y-29696363D01*
G37*
G36*
X32914885Y-26068667D02*
G01*
X32968730Y-26072137D01*
X33013681Y-26079187D01*
X33046900Y-26087500D01*
X33073967Y-26096722D01*
X33102615Y-26109487D01*
X33125683Y-26122605D01*
X33149761Y-26139824D01*
X33171484Y-26159187D01*
X33190468Y-26180710D01*
X33204773Y-26201363D01*
X33218483Y-26227047D01*
X33229382Y-26254949D01*
X33238281Y-26288991D01*
X33243203Y-26321608D01*
X33245378Y-26360955D01*
X33244204Y-26393664D01*
X33239610Y-26425914D01*
X33230745Y-26458947D01*
X33218974Y-26487682D01*
X33205157Y-26512539D01*
X33186682Y-26538130D01*
X33165190Y-26561544D01*
X33143080Y-26580845D01*
X33116332Y-26599542D01*
X33086842Y-26615779D01*
X33057400Y-26628500D01*
X33289400Y-27047500D01*
X33289400Y-27055500D01*
X33149400Y-27055500D01*
X32935400Y-26656500D01*
X32703400Y-26656500D01*
X32703400Y-27055500D01*
X32572400Y-27055500D01*
X32572400Y-26549500D01*
X32703400Y-26549500D01*
X32906421Y-26549488D01*
X32946671Y-26546753D01*
X32978125Y-26540601D01*
X33006765Y-26530933D01*
X33030548Y-26518982D01*
X33053798Y-26502576D01*
X33078204Y-26477785D01*
X33096365Y-26449242D01*
X33108263Y-26416964D01*
X33113718Y-26383468D01*
X33113332Y-26340475D01*
X33106806Y-26302547D01*
X33094348Y-26269343D01*
X33085277Y-26253565D01*
X33074520Y-26239132D01*
X33053338Y-26218566D01*
X33027795Y-26201926D01*
X32998291Y-26189329D01*
X32962088Y-26180285D01*
X32936388Y-26176948D01*
X32908791Y-26175548D01*
X32703400Y-26175500D01*
X32703400Y-26549500D01*
X32572400Y-26549500D01*
X32572400Y-26175500D01*
X32572400Y-26068500D01*
X32914885Y-26068667D01*
G37*
G36*
X33807400Y-27055500D02*
G01*
X33681400Y-27055500D01*
X33681400Y-26219500D01*
X33428400Y-26312500D01*
X33428400Y-26198500D01*
X33788400Y-26063500D01*
X33807400Y-26063500D01*
X33807400Y-27055500D01*
G37*
D13*
X32405800Y-27420000D02*
X33860000Y-27420000D01*
X32405800Y-29240000D02*
X33860000Y-29240000D01*
D10*
%TO.C,R4*%
G36*
X18003206Y-52939983D02*
G01*
X17167206Y-52939989D01*
X17260208Y-53192988D01*
X17146208Y-53192989D01*
X17011205Y-52832990D01*
X17011205Y-52813990D01*
X18003205Y-52813983D01*
X18003206Y-52939983D01*
G37*
G36*
X18003199Y-51972983D02*
G01*
X17663201Y-52227985D01*
X17745201Y-52306985D01*
X18003201Y-52306983D01*
X18003202Y-52431983D01*
X16961202Y-52431990D01*
X16961201Y-52306990D01*
X17591201Y-52306986D01*
X17511201Y-52239986D01*
X17269199Y-52010988D01*
X17269198Y-51858988D01*
X17576200Y-52143986D01*
X18003198Y-51824983D01*
X18003199Y-51972983D01*
G37*
G36*
X17548198Y-50993197D02*
G01*
X17608245Y-51000404D01*
X17667659Y-51014097D01*
X17700394Y-51024507D01*
X17736059Y-51038110D01*
X17767065Y-51052016D01*
X17796411Y-51067484D01*
X17824096Y-51084515D01*
X17850122Y-51103109D01*
X17874487Y-51123265D01*
X17897193Y-51144983D01*
X17897192Y-50995983D01*
X18003192Y-50995983D01*
X18003194Y-51323983D01*
X17893194Y-51323983D01*
X17885664Y-51295898D01*
X17874326Y-51269765D01*
X17859180Y-51245585D01*
X17840224Y-51223359D01*
X17817461Y-51203086D01*
X17790888Y-51184765D01*
X17760469Y-51168674D01*
X17726880Y-51155110D01*
X17690313Y-51143987D01*
X17654855Y-51136064D01*
X17612629Y-51129580D01*
X17572078Y-51125831D01*
X17524192Y-51123986D01*
X17418636Y-51124132D01*
X17381410Y-51125937D01*
X17346496Y-51129804D01*
X17313894Y-51135734D01*
X17283605Y-51143727D01*
X17255629Y-51153782D01*
X17229965Y-51165899D01*
X17206613Y-51180079D01*
X17185503Y-51196282D01*
X17166800Y-51214094D01*
X17150722Y-51233407D01*
X17137269Y-51254219D01*
X17126441Y-51276532D01*
X17118238Y-51300345D01*
X17112660Y-51325657D01*
X17109707Y-51352470D01*
X17109526Y-51384169D01*
X17112183Y-51411356D01*
X17117496Y-51436981D01*
X17125464Y-51461044D01*
X17136090Y-51483544D01*
X17149371Y-51504481D01*
X17165309Y-51523856D01*
X17183903Y-51541668D01*
X17205094Y-51557860D01*
X17228532Y-51572078D01*
X17254157Y-51584265D01*
X17278373Y-51593263D01*
X17308100Y-51601642D01*
X17335905Y-51607307D01*
X17369733Y-51611877D01*
X17424577Y-51614923D01*
X17541035Y-51614520D01*
X17602007Y-51610314D01*
X17657946Y-51601735D01*
X17705114Y-51589934D01*
X17751372Y-51572944D01*
X17777301Y-51560317D01*
X17803468Y-51544299D01*
X17826432Y-51526461D01*
X17846191Y-51506804D01*
X17862748Y-51485328D01*
X17876100Y-51462032D01*
X17886249Y-51436918D01*
X17893195Y-51409983D01*
X18003195Y-51409983D01*
X18003197Y-51743983D01*
X17897197Y-51743983D01*
X17897196Y-51593983D01*
X17869751Y-51619894D01*
X17839915Y-51643624D01*
X17807689Y-51665175D01*
X17776048Y-51683016D01*
X17739239Y-51700389D01*
X17703644Y-51714133D01*
X17664222Y-51726321D01*
X17624379Y-51735696D01*
X17580739Y-51742679D01*
X17540016Y-51746195D01*
X17406958Y-51746425D01*
X17369165Y-51743671D01*
X17332690Y-51738623D01*
X17294090Y-51730418D01*
X17260384Y-51720551D01*
X17209197Y-51699988D01*
X17159778Y-51671808D01*
X17119067Y-51640386D01*
X17098638Y-51620624D01*
X17081974Y-51601796D01*
X17052873Y-51560531D01*
X17040639Y-51538265D01*
X17028892Y-51512395D01*
X17019281Y-51485654D01*
X17012531Y-51461154D01*
X17004093Y-51410092D01*
X17002194Y-51369990D01*
X17004057Y-51330263D01*
X17009647Y-51292084D01*
X17018963Y-51255451D01*
X17032006Y-51220365D01*
X17048775Y-51186826D01*
X17069115Y-51155083D01*
X17092517Y-51125950D01*
X17118942Y-51099489D01*
X17148391Y-51075700D01*
X17180864Y-51054582D01*
X17216293Y-51036168D01*
X17253817Y-51020863D01*
X17293168Y-51008793D01*
X17334348Y-50999956D01*
X17373702Y-50994698D01*
X17422191Y-50991987D01*
X17548198Y-50993197D01*
G37*
G36*
X14363201Y-52261009D02*
G01*
X13964202Y-52475012D01*
X13964204Y-52707012D01*
X14363204Y-52707009D01*
X14363205Y-52838009D01*
X13376205Y-52838017D01*
X13376268Y-52707016D01*
X13483204Y-52707016D01*
X13857204Y-52707013D01*
X13857190Y-52503992D01*
X13854456Y-52463742D01*
X13848303Y-52432289D01*
X13838635Y-52403648D01*
X13826684Y-52379865D01*
X13810278Y-52356615D01*
X13785486Y-52332209D01*
X13756943Y-52314049D01*
X13724665Y-52302151D01*
X13691169Y-52296696D01*
X13648176Y-52297082D01*
X13610248Y-52303609D01*
X13577044Y-52316067D01*
X13561266Y-52325138D01*
X13546833Y-52335896D01*
X13526268Y-52357078D01*
X13509628Y-52382621D01*
X13497031Y-52412125D01*
X13487987Y-52448328D01*
X13484650Y-52474028D01*
X13483250Y-52501625D01*
X13483204Y-52707016D01*
X13376268Y-52707016D01*
X13376370Y-52495532D01*
X13379839Y-52441687D01*
X13386889Y-52396735D01*
X13395202Y-52363516D01*
X13404423Y-52336450D01*
X13417188Y-52307801D01*
X13430306Y-52284733D01*
X13447525Y-52260655D01*
X13466887Y-52238932D01*
X13488410Y-52219947D01*
X13509063Y-52205643D01*
X13534747Y-52191932D01*
X13562649Y-52181033D01*
X13596691Y-52172134D01*
X13629309Y-52167212D01*
X13668655Y-52165036D01*
X13701364Y-52166211D01*
X13733614Y-52170804D01*
X13766647Y-52179668D01*
X13795382Y-52191440D01*
X13820239Y-52205257D01*
X13845830Y-52223731D01*
X13869245Y-52245223D01*
X13888546Y-52267333D01*
X13907243Y-52294081D01*
X13923480Y-52323571D01*
X13936201Y-52353012D01*
X14355200Y-52121009D01*
X14363200Y-52121009D01*
X14363201Y-52261009D01*
G37*
G36*
X14134195Y-51485011D02*
G01*
X14363195Y-51485009D01*
X14363196Y-51611009D01*
X14134196Y-51611011D01*
X14134199Y-52061011D01*
X14060199Y-52061012D01*
X13376196Y-51619017D01*
X13376196Y-51611016D01*
X13376196Y-51611015D01*
X13547196Y-51611015D01*
X13574196Y-51626015D01*
X14031198Y-51919012D01*
X14031196Y-51611012D01*
X13547196Y-51611015D01*
X13376196Y-51611015D01*
X13376195Y-51485017D01*
X14031195Y-51485012D01*
X14031194Y-51348012D01*
X14134194Y-51348011D01*
X14134195Y-51485011D01*
G37*
D13*
X14727705Y-52877107D02*
X14727695Y-51422907D01*
X16547705Y-52877093D02*
X16547695Y-51422893D01*
D10*
%TO.C,Q6*%
G36*
X14800200Y-47700976D02*
G01*
X14634202Y-47908977D01*
X14640486Y-47936935D01*
X14644714Y-47965684D01*
X14646885Y-47995224D01*
X14646976Y-48026496D01*
X14645164Y-48054902D01*
X14640959Y-48085851D01*
X14635295Y-48112464D01*
X14626756Y-48141396D01*
X14615924Y-48169259D01*
X14604370Y-48193131D01*
X14591002Y-48216158D01*
X14574189Y-48240852D01*
X14557642Y-48261477D01*
X14537197Y-48283186D01*
X14496064Y-48317874D01*
X14470235Y-48335189D01*
X14439264Y-48352572D01*
X14409435Y-48366492D01*
X14378203Y-48378509D01*
X14345627Y-48388588D01*
X14311705Y-48396729D01*
X14276439Y-48402932D01*
X14239829Y-48407197D01*
X14188922Y-48409870D01*
X14104745Y-48409969D01*
X14035636Y-48406524D01*
X13994601Y-48401261D01*
X13955225Y-48393605D01*
X13921207Y-48384669D01*
X13884987Y-48372467D01*
X13850443Y-48357818D01*
X13815028Y-48339020D01*
X13782627Y-48317858D01*
X13753239Y-48294333D01*
X13726864Y-48268444D01*
X13703502Y-48240193D01*
X13683181Y-48209507D01*
X13666202Y-48176899D01*
X13651589Y-48139575D01*
X13641776Y-48103756D01*
X13635389Y-48066400D01*
X13632429Y-48027508D01*
X13632778Y-48004980D01*
X13632778Y-48004979D01*
X13744295Y-48004979D01*
X13746062Y-48046549D01*
X13753383Y-48084780D01*
X13766258Y-48119939D01*
X13784686Y-48152026D01*
X13803895Y-48175994D01*
X13826821Y-48197905D01*
X13856471Y-48219689D01*
X13886277Y-48236473D01*
X13918970Y-48250529D01*
X13954550Y-48261856D01*
X13993018Y-48270453D01*
X14039146Y-48276805D01*
X14094004Y-48279901D01*
X14186982Y-48279824D01*
X14232388Y-48277484D01*
X14274907Y-48272335D01*
X14318765Y-48263321D01*
X14362891Y-48249402D01*
X14399263Y-48233107D01*
X14432070Y-48213346D01*
X14452918Y-48197549D01*
X14468996Y-48182947D01*
X14485577Y-48164690D01*
X14497922Y-48147993D01*
X14510148Y-48127292D01*
X14518761Y-48108501D01*
X14525652Y-48088743D01*
X14531514Y-48064471D01*
X14535030Y-48038882D01*
X14536203Y-48011977D01*
X14534765Y-47981368D01*
X14531149Y-47956046D01*
X14525331Y-47932088D01*
X14517312Y-47909493D01*
X14507092Y-47888263D01*
X14494671Y-47868396D01*
X14468257Y-47837511D01*
X14452624Y-47823572D01*
X14432393Y-47808611D01*
X14393264Y-47786604D01*
X14348580Y-47769237D01*
X14298341Y-47756510D01*
X14242548Y-47748425D01*
X14186525Y-47745090D01*
X14107201Y-47744981D01*
X14054779Y-47746690D01*
X14006263Y-47751817D01*
X13961654Y-47760363D01*
X13917095Y-47773710D01*
X13880689Y-47789433D01*
X13848189Y-47808574D01*
X13816936Y-47833170D01*
X13793279Y-47858542D01*
X13772614Y-47889834D01*
X13757561Y-47924671D01*
X13748122Y-47963053D01*
X13744295Y-48004979D01*
X13632778Y-48004979D01*
X13633109Y-47983672D01*
X13637314Y-47944796D01*
X13645810Y-47904272D01*
X13657180Y-47868855D01*
X13670490Y-47838093D01*
X13686633Y-47808699D01*
X13707241Y-47778482D01*
X13728539Y-47753159D01*
X13752328Y-47729839D01*
X13781372Y-47706499D01*
X13810391Y-47687382D01*
X13841899Y-47670268D01*
X13875945Y-47655225D01*
X13911887Y-47642545D01*
X13949539Y-47632256D01*
X13988899Y-47624360D01*
X14025784Y-47619300D01*
X14068392Y-47615950D01*
X14171200Y-47614980D01*
X14236089Y-47617507D01*
X14300581Y-47625772D01*
X14360198Y-47639787D01*
X14411662Y-47658148D01*
X14464010Y-47684104D01*
X14507424Y-47713252D01*
X14527022Y-47729561D01*
X14547388Y-47749290D01*
X14579201Y-47787977D01*
X14718200Y-47611976D01*
X14800200Y-47700976D01*
G37*
G36*
X14361671Y-46818431D02*
G01*
X14416756Y-46827650D01*
X14448194Y-46836728D01*
X14474164Y-46846799D01*
X14502086Y-46860740D01*
X14524979Y-46875066D01*
X14549386Y-46893871D01*
X14571636Y-46915032D01*
X14588774Y-46935006D01*
X14605665Y-46959475D01*
X14619680Y-46985694D01*
X14630821Y-47013662D01*
X14638211Y-47039570D01*
X14643961Y-47070820D01*
X14646837Y-47103820D01*
X14646957Y-47134171D01*
X14643976Y-47168194D01*
X14638575Y-47196580D01*
X14626334Y-47234891D01*
X14610766Y-47267116D01*
X14588413Y-47300417D01*
X14563745Y-47328134D01*
X14534776Y-47353706D01*
X14498868Y-47378628D01*
X14459884Y-47399253D01*
X14422168Y-47414142D01*
X14381960Y-47425551D01*
X14344128Y-47432770D01*
X14304328Y-47437239D01*
X14257198Y-47438980D01*
X14175695Y-47438527D01*
X14111663Y-47434902D01*
X14044372Y-47426492D01*
X13988774Y-47415164D01*
X13949680Y-47404289D01*
X13906892Y-47389025D01*
X13867143Y-47370985D01*
X13835491Y-47353314D01*
X13806070Y-47333603D01*
X13779007Y-47311858D01*
X13750640Y-47283950D01*
X13729010Y-47257858D01*
X13706907Y-47224885D01*
X13690647Y-47194452D01*
X13674810Y-47156413D01*
X13663920Y-47121638D01*
X13655508Y-47084859D01*
X13649575Y-47046076D01*
X13646121Y-47005289D01*
X13645195Y-46954984D01*
X13751195Y-46954983D01*
X13752158Y-47000436D01*
X13757051Y-47043180D01*
X13764836Y-47079186D01*
X13777244Y-47116457D01*
X13791792Y-47147537D01*
X13811714Y-47179334D01*
X13835592Y-47208249D01*
X13863186Y-47233988D01*
X13884510Y-47249857D01*
X13907484Y-47263956D01*
X13954529Y-47285443D01*
X13982220Y-47294483D01*
X14011562Y-47301753D01*
X14075198Y-47310981D01*
X14056587Y-47293237D01*
X14040129Y-47274129D01*
X14027736Y-47256665D01*
X14015278Y-47235024D01*
X14004972Y-47212019D01*
X13996820Y-47187651D01*
X13991547Y-47165678D01*
X13987394Y-47138777D01*
X13985993Y-47118981D01*
X14090196Y-47118981D01*
X14092571Y-47150793D01*
X14099112Y-47179369D01*
X14110690Y-47208517D01*
X14127019Y-47236290D01*
X14147522Y-47261480D01*
X14170436Y-47282550D01*
X14197385Y-47300417D01*
X14225198Y-47312980D01*
X14298311Y-47312321D01*
X14353686Y-47305876D01*
X14379123Y-47300075D01*
X14403061Y-47292555D01*
X14425498Y-47283316D01*
X14448947Y-47270869D01*
X14470523Y-47256253D01*
X14489803Y-47240131D01*
X14506118Y-47222942D01*
X14519466Y-47204685D01*
X14528841Y-47187560D01*
X14536586Y-47167285D01*
X14541365Y-47145943D01*
X14543178Y-47123533D01*
X14542442Y-47103021D01*
X14539735Y-47083525D01*
X14535059Y-47065123D01*
X14528415Y-47047814D01*
X14510649Y-47018309D01*
X14498345Y-47004145D01*
X14484071Y-46991075D01*
X14451204Y-46969275D01*
X14413501Y-46953525D01*
X14368099Y-46943365D01*
X14320342Y-46939991D01*
X14271580Y-46942671D01*
X14227767Y-46951476D01*
X14188955Y-46966406D01*
X14155142Y-46987461D01*
X14138430Y-47001730D01*
X14125633Y-47015480D01*
X14114805Y-47030231D01*
X14105946Y-47045981D01*
X14099055Y-47062731D01*
X14094133Y-47080481D01*
X14091180Y-47099231D01*
X14090196Y-47118981D01*
X13985993Y-47118981D01*
X13985394Y-47110513D01*
X13985551Y-47082181D01*
X13987884Y-47055488D01*
X13992394Y-47030016D01*
X13999081Y-47005763D01*
X14007945Y-46982731D01*
X14018987Y-46960920D01*
X14032206Y-46940328D01*
X14047602Y-46920956D01*
X14062531Y-46905323D01*
X14081934Y-46888244D01*
X14102836Y-46872847D01*
X14145019Y-46849141D01*
X14191576Y-46831790D01*
X14218457Y-46825078D01*
X14246605Y-46820209D01*
X14302246Y-46816054D01*
X14361671Y-46818431D01*
G37*
D13*
X18167694Y-46889988D02*
X17237694Y-46889995D01*
X15007694Y-46890012D02*
X15937694Y-46890005D01*
D14*
X14837712Y-49350013D02*
X14837688Y-45950013D01*
X14837688Y-45950013D02*
X18337688Y-45949987D01*
X18337688Y-45949987D02*
X18337712Y-49349987D01*
X18337712Y-49349987D02*
X14837712Y-49350013D01*
D13*
X15007694Y-46890012D02*
X15007710Y-49050012D01*
X18167694Y-46889988D02*
X18167705Y-48349988D01*
%TD*%
M02*
