M48
; DRILL file Flux date 2026-09-25T08:37:17
; FORMAT={-:-/ absolute / metric / decimal}
; #@! TF.CreationDate,2026-09-25T08:37:17+00:00
; #@! TF.GenerationSoftware,Flux,Flux PCB Export,1
; #@! TF.FileFunction,MixedPlating,1,2
FMAT,2
METRIC
; #@! TA.AperFunction,Plated,PTH,ViaDrill
T1C0.300
; #@! TA.AperFunction,Plated,PTH,ComponentDrill
T2C1.000
; #@! TA.AperFunction,Plated,PTH,ComponentDrill
T3C1.150
; #@! TA.AperFunction,NonPlated,NPTH,ComponentDrill
T4C1.860
%
G90
G05
T1
X33.173Y-19.435
T2
X17.538Y-13.17
X17.538Y-15.67
X17.538Y-18.17
X17.538Y-20.67
X44.997Y-15.67
X44.998Y-18.21
T3
X25.512Y-15.63
X25.512Y-18.17
X25.512Y-20.71
X25.512Y-23.25
X25.513Y-25.79
X25.513Y-28.33
X25.513Y-30.87
X25.513Y-33.41
X25.513Y-35.95
X25.513Y-38.49
X25.513Y-41.03
X25.513Y-43.57
X25.513Y-46.11
X25.513Y-48.65
X25.513Y-51.19
X40.752Y-15.63
X40.752Y-18.17
X40.752Y-20.71
X40.752Y-23.25
X40.753Y-25.79
X40.753Y-28.33
X40.753Y-30.87
X40.753Y-33.41
X40.753Y-35.95
X40.753Y-38.49
X40.753Y-41.03
X40.753Y-43.57
X40.753Y-46.11
X40.753Y-48.65
X40.753Y-51.19
T4
X25.512Y-13.09
X25.513Y-53.73
X40.752Y-13.09
X40.753Y-53.73
M30
