<?xml version="1.0" standalone="no"?>
 <!DOCTYPE svg PUBLIC "-//W3C//DTD SVG 1.1//EN" 
 "http://www.w3.org/Graphics/SVG/1.1/DTD/svg11.dtd"> 
<svg
  xmlns:svg="http://www.w3.org/2000/svg"
  xmlns="http://www.w3.org/2000/svg"
  xmlns:xlink="http://www.w3.org/1999/xlink"
  xmlns:inkscape="http://www.inkscape.org/namespaces/inkscape"
  version="1.1"
  width="41.9862mm" height="44.9834mm" viewBox="0.0000 0.0000 41.9862 44.9834">
<title>SVG Image created as status-indicator-copy-Edge_Cuts.svg date 2026-09-25T08:08:01 </title>
  <desc>Image generated by Flux </desc>
<g style="fill:#000000; fill-opacity:1.0000;stroke:#000000; stroke-opacity:1.0000;
stroke-linecap:round; stroke-linejoin:round;"
 transform="translate(0 0) scale(1 1)">
</g>
<g style="fill:none; 
stroke:#D0D2CD; stroke-width:0.0500; stroke-opacity:1; 
stroke-linecap:round; stroke-linejoin:round;">
<path d="M0.0000 0.0000
L42.0000 0.0000
" />
<path d="M0.0000 45.0000
L0.0000 0.0000
" />
<path d="M42.0000 0.0000
L42.0000 45.0000
" />
<path d="M42.0000 45.0000
L0.0000 45.0000
" />
</g>
<g style="fill:#000000; fill-opacity:1.0000; stroke:none;">
<circle cx="30.7524" cy="3.0899" r="0.9300" /> 
<circle cx="15.5124" cy="3.0900" r="0.9300" /> 
<circle cx="30.7527" cy="43.7299" r="0.9300" /> 
<circle cx="15.5127" cy="43.7300" r="0.9300" /> 
<circle cx="30.7527" cy="38.6499" r="0.5750" /> 
<circle cx="30.7526" cy="33.5699" r="0.5750" /> 
<circle cx="30.7526" cy="31.0299" r="0.5750" /> 
<circle cx="30.7526" cy="28.4899" r="0.5750" /> 
<circle cx="30.7526" cy="25.9499" r="0.5750" /> 
<circle cx="30.7526" cy="23.4099" r="0.5750" /> 
<circle cx="30.7526" cy="20.8699" r="0.5750" /> 
<circle cx="30.7525" cy="18.3299" r="0.5750" /> 
<circle cx="30.7525" cy="15.7899" r="0.5750" /> 
<circle cx="30.7527" cy="36.1099" r="0.5750" /> 
<circle cx="30.7525" cy="10.7099" r="0.5750" /> 
<circle cx="15.5124" cy="5.6300" r="0.5750" /> 
<circle cx="15.5125" cy="8.1700" r="0.5750" /> 
<circle cx="15.5125" cy="15.7900" r="0.5750" /> 
<circle cx="15.5125" cy="18.3300" r="0.5750" /> 
<circle cx="15.5126" cy="20.8700" r="0.5750" /> 
<circle cx="15.5126" cy="23.4100" r="0.5750" /> 
<circle cx="15.5126" cy="25.9500" r="0.5750" /> 
<circle cx="15.5126" cy="28.4900" r="0.5750" /> 
<circle cx="15.5126" cy="31.0300" r="0.5750" /> 
<circle cx="15.5126" cy="33.5700" r="0.5750" /> 
<circle cx="15.5127" cy="36.1100" r="0.5750" /> 
<circle cx="15.5127" cy="38.6500" r="0.5750" /> 
<circle cx="15.5127" cy="41.1900" r="0.5750" /> 
<circle cx="30.7527" cy="41.1899" r="0.5750" /> 
<circle cx="30.7525" cy="8.1699" r="0.5750" /> 
<circle cx="15.5125" cy="13.2500" r="0.5750" /> 
<circle cx="15.5125" cy="10.7100" r="0.5750" /> 
<circle cx="30.7525" cy="13.2499" r="0.5750" /> 
<circle cx="30.7524" cy="5.6299" r="0.5750" /> 
<circle cx="7.5377" cy="3.1700" r="0.5000" /> 
<circle cx="7.5377" cy="5.6700" r="0.5000" /> 
<circle cx="7.5377" cy="8.1700" r="0.5000" /> 
<circle cx="7.5377" cy="10.6700" r="0.5000" /> 
<circle cx="34.9975" cy="8.2100" r="0.5000" /> 
<circle cx="34.9975" cy="5.6700" r="0.5000" /> 
</g> 
</svg>
